<mxfile host="65bd71144e">
    <diagram name="ページ1" id="wdXBag7NcmLRrbB8cPSW">
        <mxGraphModel dx="6389" dy="4436" grid="1" gridSize="10" guides="1" tooltips="1" connect="1" arrows="1" fold="1" page="1" pageScale="1" pageWidth="827" pageHeight="1169" math="0" shadow="0">
            <root>
                <mxCell id="0"/>
                <mxCell id="1" parent="0"/>
                <UserObject label="" mermaidData="{&#xa;  &quot;data&quot;: &quot;stateDiagram-v2\n    [*] --&gt; IDLE: No Pending Task\n    IDLE --&gt; TASK_DETECTED: New Task Detected\n    TASK_DETECTED --&gt; INIT_TASK: Initialize Task\\n(Clear callbacks,\\ndisable Smart Charge)\n    INIT_TASK --&gt; API_CALL: Call MissionWorks API\\n(Obtain runtimeId)\n    API_CALL --&gt; TASK_STARTED: runtimeId Received\\n(Log Task STARTED)\n    TASK_STARTED --&gt; RUNNING: Begin Task Execution\n    RUNNING --&gt; CALLBACK_CHECK: Every 10 sec\\nCheck Callback Response\n    CALLBACK_CHECK --&gt; TASK_COMPLETED: If Callback = \&quot;Success\&quot;\n    CALLBACK_CHECK --&gt; CONTINUE_RUNNING: If Callback not \&quot;Success\&quot;\\nand AMR OK\n    CALLBACK_CHECK --&gt; RECOVERY: If AMR Abnormal\\n(abnormalStatus ≠ 1)\n    CALLBACK_CHECK --&gt; LOW_BATTERY: If Battery ≤ 10%\n    CONTINUE_RUNNING --&gt; RUNNING: Resume Task\\n(Call resumeTask API)\n    LOW_BATTERY --&gt; PAUSE_TASK: Pause Task\\n(Call pauseTask API)\n    PAUSE_TASK --&gt; CHARGING: Enter Charging State\n    CHARGING --&gt; WAIT_CHARGE: Wait until Battery ≥ ChargeThreshold\\n(e.g., 30%)\n    WAIT_CHARGE --&gt; RESUME_TASK: Battery Sufficient\\n(Call resumeTask API)\n    RESUME_TASK --&gt; RUNNING: Resume Task Execution\n    TASK_COMPLETED --&gt; UPDATE_STATUS: Update Task Status to COMPLETED\n    UPDATE_STATUS --&gt; POST_TASK_CHECK: Post-Task Battery Check\n    POST_TASK_CHECK --&gt; CHARGING_PROMO: If Battery ≤ 50%\n    POST_TASK_CHECK --&gt; IDLE: If Battery &gt; 50%\n    CHARGING_PROMO --&gt; WAIT_PROMO_CHARGE: Wait until Battery ≥ 50%\n    WAIT_PROMO_CHARGE --&gt; IDLE: End Charging Promotion\n    RECOVERY --&gt; PERFORM_RECOVERY: Attempt Recovery\\n(Call oneKeyReset API)\n    PERFORM_RECOVERY --&gt; RUNNING: If Recovery Successful\n    PERFORM_RECOVERY --&gt; IDLE: If Recovery Fails\n                                                                                                                                                                                                                                                                                                                                                                                                                       &quot;&#xa;}" id="7">
                    <mxCell style="shape=image;noLabel=1;verticalAlign=top;imageAspect=1;image=data:image/svg+xml,PHN2ZyBhcmlhLXJvbGVkZXNjcmlwdGlvbj0ic3RhdGVEaWFncmFtIiByb2xlPSJncmFwaGljcy1kb2N1bWVudCBkb2N1bWVudCIgdmlld0JveD0iLTIgOS41MzY3NDMxNjQwNjI1ZS03IDE0NTIuNzYxNzE4NzUgMTU3NC4wMDM1NDAwMzkwNjI1IiBzdHlsZT0ibWF4LXdpZHRoOiAxNDUyLjc2MTcxODc1cHg7IiBjbGFzcz0ic3RhdGVkaWFncmFtIiB4bWxucz0iaHR0cDovL3d3dy53My5vcmcvMjAwMC9zdmciIHdpZHRoPSIxMDAlIiBpZD0iZ2VNZXJtYWlkT3V0cHV0LTE3NDIxOTk1OTM5NjciPjxzdHlsZT4jZ2VNZXJtYWlkT3V0cHV0LTE3NDIxOTk1OTM5Njd7Zm9udC1mYW1pbHk6InRyZWJ1Y2hldCBtcyIsdmVyZGFuYSxhcmlhbCxzYW5zLXNlcmlmO2ZvbnQtc2l6ZToxNnB4O2ZpbGw6IzAwMDAwMDt9I2dlTWVybWFpZE91dHB1dC0xNzQyMTk5NTkzOTY3IC5lcnJvci1pY29ue2ZpbGw6IzU1MjIyMjt9I2dlTWVybWFpZE91dHB1dC0xNzQyMTk5NTkzOTY3IC5lcnJvci10ZXh0e2ZpbGw6IzU1MjIyMjtzdHJva2U6IzU1MjIyMjt9I2dlTWVybWFpZE91dHB1dC0xNzQyMTk5NTkzOTY3IC5lZGdlLXRoaWNrbmVzcy1ub3JtYWx7c3Ryb2tlLXdpZHRoOjFweDt9I2dlTWVybWFpZE91dHB1dC0xNzQyMTk5NTkzOTY3IC5lZGdlLXRoaWNrbmVzcy10aGlja3tzdHJva2Utd2lkdGg6My41cHg7fSNnZU1lcm1haWRPdXRwdXQtMTc0MjE5OTU5Mzk2NyAuZWRnZS1wYXR0ZXJuLXNvbGlke3N0cm9rZS1kYXNoYXJyYXk6MDt9I2dlTWVybWFpZE91dHB1dC0xNzQyMTk5NTkzOTY3IC5lZGdlLXRoaWNrbmVzcy1pbnZpc2libGV7c3Ryb2tlLXdpZHRoOjA7ZmlsbDpub25lO30jZ2VNZXJtYWlkT3V0cHV0LTE3NDIxOTk1OTM5NjcgLmVkZ2UtcGF0dGVybi1kYXNoZWR7c3Ryb2tlLWRhc2hhcnJheTozO30jZ2VNZXJtYWlkT3V0cHV0LTE3NDIxOTk1OTM5NjcgLmVkZ2UtcGF0dGVybi1kb3R0ZWR7c3Ryb2tlLWRhc2hhcnJheToyO30jZ2VNZXJtYWlkT3V0cHV0LTE3NDIxOTk1OTM5NjcgLm1hcmtlcntmaWxsOiM2NjY7c3Ryb2tlOiM2NjY7fSNnZU1lcm1haWRPdXRwdXQtMTc0MjE5OTU5Mzk2NyAubWFya2VyLmNyb3Nze3N0cm9rZTojNjY2O30jZ2VNZXJtYWlkT3V0cHV0LTE3NDIxOTk1OTM5Njcgc3Zne2ZvbnQtZmFtaWx5OiJ0cmVidWNoZXQgbXMiLHZlcmRhbmEsYXJpYWwsc2Fucy1zZXJpZjtmb250LXNpemU6MTZweDt9I2dlTWVybWFpZE91dHB1dC0xNzQyMTk5NTkzOTY3IHB7bWFyZ2luOjA7fSNnZU1lcm1haWRPdXRwdXQtMTc0MjE5OTU5Mzk2NyBkZWZzICNzdGF0ZWRpYWdyYW0tYmFyYkVuZHtmaWxsOiMwMDA7c3Ryb2tlOiMwMDA7fSNnZU1lcm1haWRPdXRwdXQtMTc0MjE5OTU5Mzk2NyBnLnN0YXRlR3JvdXAgdGV4dHtmaWxsOiM5OTk7c3Ryb2tlOm5vbmU7Zm9udC1zaXplOjEwcHg7fSNnZU1lcm1haWRPdXRwdXQtMTc0MjE5OTU5Mzk2NyBnLnN0YXRlR3JvdXAgdGV4dHtmaWxsOiMwMDAwMDA7c3Ryb2tlOm5vbmU7Zm9udC1zaXplOjEwcHg7fSNnZU1lcm1haWRPdXRwdXQtMTc0MjE5OTU5Mzk2NyBnLnN0YXRlR3JvdXAgLnN0YXRlLXRpdGxle2ZvbnQtd2VpZ2h0OmJvbGRlcjtmaWxsOiMxMTExMTE7fSNnZU1lcm1haWRPdXRwdXQtMTc0MjE5OTU5Mzk2NyBnLnN0YXRlR3JvdXAgcmVjdHtmaWxsOiNlZWU7c3Ryb2tlOiM5OTk7fSNnZU1lcm1haWRPdXRwdXQtMTc0MjE5OTU5Mzk2NyBnLnN0YXRlR3JvdXAgbGluZXtzdHJva2U6IzY2NjtzdHJva2Utd2lkdGg6MTt9I2dlTWVybWFpZE91dHB1dC0xNzQyMTk5NTkzOTY3IC50cmFuc2l0aW9ue3N0cm9rZTojMDAwO3N0cm9rZS13aWR0aDoxO2ZpbGw6bm9uZTt9I2dlTWVybWFpZE91dHB1dC0xNzQyMTk5NTkzOTY3IC5zdGF0ZUdyb3VwIC5jb21wb3NpdHtmaWxsOiNmZmZmZmY7Ym9yZGVyLWJvdHRvbToxcHg7fSNnZU1lcm1haWRPdXRwdXQtMTc0MjE5OTU5Mzk2NyAuc3RhdGVHcm91cCAuYWx0LWNvbXBvc2l0e2ZpbGw6I2UwZTBlMDtib3JkZXItYm90dG9tOjFweDt9I2dlTWVybWFpZE91dHB1dC0xNzQyMTk5NTkzOTY3IC5zdGF0ZS1ub3Rle3N0cm9rZTojOTk5O2ZpbGw6IzY2Njt9I2dlTWVybWFpZE91dHB1dC0xNzQyMTk5NTkzOTY3IC5zdGF0ZS1ub3RlIHRleHR7ZmlsbDojZmZmO3N0cm9rZTpub25lO2ZvbnQtc2l6ZToxMHB4O30jZ2VNZXJtYWlkT3V0cHV0LTE3NDIxOTk1OTM5NjcgLnN0YXRlTGFiZWwgLmJveHtzdHJva2U6bm9uZTtzdHJva2Utd2lkdGg6MDtmaWxsOiNlZWU7b3BhY2l0eTowLjU7fSNnZU1lcm1haWRPdXRwdXQtMTc0MjE5OTU5Mzk2NyAuZWRnZUxhYmVsIC5sYWJlbCByZWN0e2ZpbGw6I2VlZTtvcGFjaXR5OjAuNTt9I2dlTWVybWFpZE91dHB1dC0xNzQyMTk5NTkzOTY3IC5lZGdlTGFiZWx7YmFja2dyb3VuZC1jb2xvcjp3aGl0ZTt0ZXh0LWFsaWduOmNlbnRlcjt9I2dlTWVybWFpZE91dHB1dC0xNzQyMTk5NTkzOTY3IC5lZGdlTGFiZWwgcHtiYWNrZ3JvdW5kLWNvbG9yOndoaXRlO30jZ2VNZXJtYWlkT3V0cHV0LTE3NDIxOTk1OTM5NjcgLmVkZ2VMYWJlbCByZWN0e29wYWNpdHk6MC41O2JhY2tncm91bmQtY29sb3I6d2hpdGU7ZmlsbDp3aGl0ZTt9I2dlTWVybWFpZE91dHB1dC0xNzQyMTk5NTkzOTY3IC5lZGdlTGFiZWwgLmxhYmVsIHRleHR7ZmlsbDojMDAwMDAwO30jZ2VNZXJtYWlkT3V0cHV0LTE3NDIxOTk1OTM5NjcgLmxhYmVsIGRpdiAuZWRnZUxhYmVse2NvbG9yOiMwMDAwMDA7fSNnZU1lcm1haWRPdXRwdXQtMTc0MjE5OTU5Mzk2NyAuc3RhdGVMYWJlbCB0ZXh0e2ZpbGw6IzExMTExMTtmb250LXNpemU6MTBweDtmb250LXdlaWdodDpib2xkO30jZ2VNZXJtYWlkT3V0cHV0LTE3NDIxOTk1OTM5NjcgLm5vZGUgY2lyY2xlLnN0YXRlLXN0YXJ0e2ZpbGw6IzIyMjtzdHJva2U6IzIyMjt9I2dlTWVybWFpZE91dHB1dC0xNzQyMTk5NTkzOTY3IC5ub2RlIC5mb3JrLWpvaW57ZmlsbDojMjIyO3N0cm9rZTojMjIyO30jZ2VNZXJtYWlkT3V0cHV0LTE3NDIxOTk1OTM5NjcgLm5vZGUgY2lyY2xlLnN0YXRlLWVuZHtmaWxsOmhzbCgwLCAwJSwgODMuMzMzMzMzMzMzMyUpO3N0cm9rZTojZmZmZmZmO3N0cm9rZS13aWR0aDoxLjU7fSNnZU1lcm1haWRPdXRwdXQtMTc0MjE5OTU5Mzk2NyAuZW5kLXN0YXRlLWlubmVye2ZpbGw6I2ZmZmZmZjtzdHJva2Utd2lkdGg6MS41O30jZ2VNZXJtYWlkT3V0cHV0LTE3NDIxOTk1OTM5NjcgLm5vZGUgcmVjdHtmaWxsOiNlZWU7c3Ryb2tlOiMwMDA7c3Ryb2tlLXdpZHRoOjFweDt9I2dlTWVybWFpZE91dHB1dC0xNzQyMTk5NTkzOTY3IC5ub2RlIHBvbHlnb257ZmlsbDojZWVlO3N0cm9rZTojMDAwO3N0cm9rZS13aWR0aDoxcHg7fSNnZU1lcm1haWRPdXRwdXQtMTc0MjE5OTU5Mzk2NyAjc3RhdGVkaWFncmFtLWJhcmJFbmR7ZmlsbDojNjY2O30jZ2VNZXJtYWlkT3V0cHV0LTE3NDIxOTk1OTM5NjcgLnN0YXRlZGlhZ3JhbS1jbHVzdGVyIHJlY3R7ZmlsbDojZWVlO3N0cm9rZTojMDAwO3N0cm9rZS13aWR0aDoxcHg7fSNnZU1lcm1haWRPdXRwdXQtMTc0MjE5OTU5Mzk2NyAuY2x1c3Rlci1sYWJlbCwjZ2VNZXJtYWlkT3V0cHV0LTE3NDIxOTk1OTM5NjcgLm5vZGVMYWJlbHtjb2xvcjojMTExMTExO30jZ2VNZXJtYWlkT3V0cHV0LTE3NDIxOTk1OTM5NjcgLnN0YXRlZGlhZ3JhbS1jbHVzdGVyIHJlY3Qub3V0ZXJ7cng6NXB4O3J5OjVweDt9I2dlTWVybWFpZE91dHB1dC0xNzQyMTk5NTkzOTY3IC5zdGF0ZWRpYWdyYW0tc3RhdGUgLmRpdmlkZXJ7c3Ryb2tlOiMwMDA7fSNnZU1lcm1haWRPdXRwdXQtMTc0MjE5OTU5Mzk2NyAuc3RhdGVkaWFncmFtLXN0YXRlIC50aXRsZS1zdGF0ZXtyeDo1cHg7cnk6NXB4O30jZ2VNZXJtYWlkT3V0cHV0LTE3NDIxOTk1OTM5NjcgLnN0YXRlZGlhZ3JhbS1jbHVzdGVyLnN0YXRlZGlhZ3JhbS1jbHVzdGVyIC5pbm5lcntmaWxsOiNmZmZmZmY7fSNnZU1lcm1haWRPdXRwdXQtMTc0MjE5OTU5Mzk2NyAuc3RhdGVkaWFncmFtLWNsdXN0ZXIuc3RhdGVkaWFncmFtLWNsdXN0ZXItYWx0IC5pbm5lcntmaWxsOiNmNGY0ZjQ7fSNnZU1lcm1haWRPdXRwdXQtMTc0MjE5OTU5Mzk2NyAuc3RhdGVkaWFncmFtLWNsdXN0ZXIgLmlubmVye3J4OjA7cnk6MDt9I2dlTWVybWFpZE91dHB1dC0xNzQyMTk5NTkzOTY3IC5zdGF0ZWRpYWdyYW0tc3RhdGUgcmVjdC5iYXNpY3tyeDo1cHg7cnk6NXB4O30jZ2VNZXJtYWlkT3V0cHV0LTE3NDIxOTk1OTM5NjcgLnN0YXRlZGlhZ3JhbS1zdGF0ZSByZWN0LmRpdmlkZXJ7c3Ryb2tlLWRhc2hhcnJheToxMCwxMDtmaWxsOiNmNGY0ZjQ7fSNnZU1lcm1haWRPdXRwdXQtMTc0MjE5OTU5Mzk2NyAubm90ZS1lZGdle3N0cm9rZS1kYXNoYXJyYXk6NTt9I2dlTWVybWFpZE91dHB1dC0xNzQyMTk5NTkzOTY3IC5zdGF0ZWRpYWdyYW0tbm90ZSByZWN0e2ZpbGw6IzY2NjtzdHJva2U6Izk5OTtzdHJva2Utd2lkdGg6MXB4O3J4OjA7cnk6MDt9I2dlTWVybWFpZE91dHB1dC0xNzQyMTk5NTkzOTY3IC5zdGF0ZWRpYWdyYW0tbm90ZSByZWN0e2ZpbGw6IzY2NjtzdHJva2U6Izk5OTtzdHJva2Utd2lkdGg6MXB4O3J4OjA7cnk6MDt9I2dlTWVybWFpZE91dHB1dC0xNzQyMTk5NTkzOTY3IC5zdGF0ZWRpYWdyYW0tbm90ZSB0ZXh0e2ZpbGw6I2ZmZjt9I2dlTWVybWFpZE91dHB1dC0xNzQyMTk5NTkzOTY3IC5zdGF0ZWRpYWdyYW0tbm90ZSAubm9kZUxhYmVse2NvbG9yOiNmZmY7fSNnZU1lcm1haWRPdXRwdXQtMTc0MjE5OTU5Mzk2NyAuc3RhdGVkaWFncmFtIC5lZGdlTGFiZWx7Y29sb3I6cmVkO30jZ2VNZXJtYWlkT3V0cHV0LTE3NDIxOTk1OTM5NjcgI2RlcGVuZGVuY3lTdGFydCwjZ2VNZXJtYWlkT3V0cHV0LTE3NDIxOTk1OTM5NjcgI2RlcGVuZGVuY3lFbmR7ZmlsbDojNjY2O3N0cm9rZTojNjY2O3N0cm9rZS13aWR0aDoxO30jZ2VNZXJtYWlkT3V0cHV0LTE3NDIxOTk1OTM5NjcgLnN0YXRlZGlhZ3JhbVRpdGxlVGV4dHt0ZXh0LWFuY2hvcjptaWRkbGU7Zm9udC1zaXplOjE4cHg7ZmlsbDojMDAwMDAwO30jZ2VNZXJtYWlkT3V0cHV0LTE3NDIxOTk1OTM5NjcgOnJvb3R7LS1tZXJtYWlkLWZvbnQtZmFtaWx5OiJ0cmVidWNoZXQgbXMiLHZlcmRhbmEsYXJpYWwsc2Fucy1zZXJpZjt9PC9zdHlsZT48Zz48ZGVmcz48bWFya2VyIG9yaWVudD0iYXV0byIgbWFya2VyVW5pdHM9InVzZXJTcGFjZU9uVXNlIiBtYXJrZXJIZWlnaHQ9IjE0IiBtYXJrZXJXaWR0aD0iMjAiIHJlZlk9IjciIHJlZlg9IjE5IiBpZD0iZ2VNZXJtYWlkT3V0cHV0LTE3NDIxOTk1OTM5Njdfc3RhdGVEaWFncmFtLWJhcmJFbmQiPjxwYXRoIGQ9Ik0gMTksNyBMOSwxMyBMMTQsNyBMOSwxIFoiPjwvcGF0aD48L21hcmtlcj48L2RlZnM+PGcgY2xhc3M9InJvb3QiPjxnIGNsYXNzPSJjbHVzdGVycyI+PC9nPjxnIGNsYXNzPSJlZGdlUGF0aHMiPjxwYXRoIG1hcmtlci1lbmQ9InVybCgjZ2VNZXJtYWlkT3V0cHV0LTE3NDIxOTk1OTM5Njdfc3RhdGVEaWFncmFtLWJhcmJFbmQpIiBzdHlsZT0iO2ZpbGw6bm9uZSIgY2xhc3M9ImVkZ2UtdGhpY2tuZXNzLW5vcm1hbCBlZGdlLXBhdHRlcm4tc29saWQgdHJhbnNpdGlvbiIgaWQ9ImVkZ2UwIiBkPSJNOTc1LjU0LDIyTDk3NS41NCwyOC4wNDNDOTc1LjU0LDM0LjA4Niw5NzUuNTQsNDYuMTcxLDk3NS41NCw1OC4yNTdDOTc1LjU0LDcwLjM0Myw5NzUuNTQsODIuNDI5LDk3NS41NCw4OC40NzFMOTc1LjU0LDk0LjUxNCI+PC9wYXRoPjxwYXRoIG1hcmtlci1lbmQ9InVybCgjZ2VNZXJtYWlkT3V0cHV0LTE3NDIxOTk1OTM5Njdfc3RhdGVEaWFncmFtLWJhcmJFbmQpIiBzdHlsZT0iO2ZpbGw6bm9uZSIgY2xhc3M9ImVkZ2UtdGhpY2tuZXNzLW5vcm1hbCBlZGdlLXBhdHRlcm4tc29saWQgdHJhbnNpdGlvbiIgaWQ9ImVkZ2UxIiBkPSJNOTUyLjA3MSwxMjIuNzgzTDkyOS4zNDksMTMwLjc4M0M5MDYuNjI4LDEzOC43ODIsODYxLjE4NSwxNTQuNzgyLDgzOC40NjMsMTY4LjgyNUM4MTUuNzQyLDE4Mi44NjgsODE1Ljc0MiwxOTQuOTU0LDgxNS43NDIsMjAwLjk5Nkw4MTUuNzQyLDIwNy4wMzkiPjwvcGF0aD48cGF0aCBtYXJrZXItZW5kPSJ1cmwoI2dlTWVybWFpZE91dHB1dC0xNzQyMTk5NTkzOTY3X3N0YXRlRGlhZ3JhbS1iYXJiRW5kKSIgc3R5bGU9IjtmaWxsOm5vbmUiIGNsYXNzPSJlZGdlLXRoaWNrbmVzcy1ub3JtYWwgZWRnZS1wYXR0ZXJuLXNvbGlkIHRyYW5zaXRpb24iIGlkPSJlZGdlMiIgZD0iTTgxNS43NDIsMjQ3LjA1TDgxNS43NDIsMjU2LjAyNkM4MTUuNzQyLDI2NS4wMDIsODE1Ljc0MiwyODIuOTU1LDgxNS43NDIsMzAwLjkwN0M4MTUuNzQyLDMxOC44Niw4MTUuNzQyLDMzNi44MTIsODE1Ljc0MiwzNDUuNzg4TDgxNS43NDIsMzU0Ljc2NCI+PC9wYXRoPjxwYXRoIG1hcmtlci1lbmQ9InVybCgjZ2VNZXJtYWlkT3V0cHV0LTE3NDIxOTk1OTM5Njdfc3RhdGVEaWFncmFtLWJhcmJFbmQpIiBzdHlsZT0iO2ZpbGw6bm9uZSIgY2xhc3M9ImVkZ2UtdGhpY2tuZXNzLW5vcm1hbCBlZGdlLXBhdHRlcm4tc29saWQgdHJhbnNpdGlvbiIgaWQ9ImVkZ2UzIiBkPSJNODE1Ljc0MiwzOTQuNzc1TDgxNS43NDIsNDAyLjI4NUM4MTUuNzQyLDQwOS43OTQsODE1Ljc0Miw0MjQuODEzLDgxNS43NDIsNDM5LjgzMkM4MTUuNzQyLDQ1NC44NTEsODE1Ljc0Miw0NjkuODcsODE1Ljc0Miw0NzcuMzhMODE1Ljc0Miw0ODQuODg5Ij48L3BhdGg+PHBhdGggbWFya2VyLWVuZD0idXJsKCNnZU1lcm1haWRPdXRwdXQtMTc0MjE5OTU5Mzk2N19zdGF0ZURpYWdyYW0tYmFyYkVuZCkiIHN0eWxlPSI7ZmlsbDpub25lIiBjbGFzcz0iZWRnZS10aGlja25lc3Mtbm9ybWFsIGVkZ2UtcGF0dGVybi1zb2xpZCB0cmFuc2l0aW9uIiBpZD0iZWRnZTQiIGQ9Ik04MTUuNzQyLDUyNC45TDgxNS43NDIsNTMyLjQxQzgxNS43NDIsNTM5LjkxOSw4MTUuNzQyLDU1NC45MzgsODE1Ljc0Miw1NjkuOTU3QzgxNS43NDIsNTg0Ljk3Niw4MTUuNzQyLDU5OS45OTUsODE1Ljc0Miw2MDcuNTA1TDgxNS43NDIsNjE1LjAxNCI+PC9wYXRoPjxwYXRoIG1hcmtlci1lbmQ9InVybCgjZ2VNZXJtYWlkT3V0cHV0LTE3NDIxOTk1OTM5Njdfc3RhdGVEaWFncmFtLWJhcmJFbmQpIiBzdHlsZT0iO2ZpbGw6bm9uZSIgY2xhc3M9ImVkZ2UtdGhpY2tuZXNzLW5vcm1hbCBlZGdlLXBhdHRlcm4tc29saWQgdHJhbnNpdGlvbiIgaWQ9ImVkZ2U1IiBkPSJNODE1Ljc0Miw2NTUuMDI1TDgxNS43NDIsNjYxLjA2OEM4MTUuNzQyLDY2Ny4xMTEsODE1Ljc0Miw2NzkuMTk2LDgxNS43NDIsNjkxLjI4MkM4MTUuNzQyLDcwMy4zNjgsODE1Ljc0Miw3MTUuNDU0LDgxNS43NDIsNzIxLjQ5Nkw4MTUuNzQyLDcyNy41MzkiPjwvcGF0aD48cGF0aCBtYXJrZXItZW5kPSJ1cmwoI2dlTWVybWFpZE91dHB1dC0xNzQyMTk5NTkzOTY3X3N0YXRlRGlhZ3JhbS1iYXJiRW5kKSIgc3R5bGU9IjtmaWxsOm5vbmUiIGNsYXNzPSJlZGdlLXRoaWNrbmVzcy1ub3JtYWwgZWRnZS1wYXR0ZXJuLXNvbGlkIHRyYW5zaXRpb24iIGlkPSJlZGdlNiIgZD0iTTg1Ni41MjgsNzY2LjUyN0w4NzMuMDI5LDc3NC4yMDdDODg5LjUzMSw3ODEuODg3LDkyMi41MzUsNzk3LjI0Nyw5MzkuMDM3LDgxMi40NDVDOTU1LjUzOCw4MjcuNjQzLDk1NS41MzgsODQyLjY4LDk1NS41MzgsODUwLjE5OEw5NTUuNTM4LDg1Ny43MTYiPjwvcGF0aD48cGF0aCBtYXJrZXItZW5kPSJ1cmwoI2dlTWVybWFpZE91dHB1dC0xNzQyMTk5NTkzOTY3X3N0YXRlRGlhZ3JhbS1iYXJiRW5kKSIgc3R5bGU9IjtmaWxsOm5vbmUiIGNsYXNzPSJlZGdlLXRoaWNrbmVzcy1ub3JtYWwgZWRnZS1wYXR0ZXJuLXNvbGlkIHRyYW5zaXRpb24iIGlkPSJlZGdlNyIgZD0iTTEwMjcuNjU1LDg5MS4wMTVMMTA4Mi40NjUsOTAxLjExOUMxMTM3LjI3NCw5MTEuMjIyLDEyNDYuODkzLDkzMS40MjksMTMwMS43MDIsOTUwLjUwOEMxMzU2LjUxMSw5NjkuNTg4LDEzNTYuNTExLDk4Ny41NCwxMzU2LjUxMSw5OTYuNTE3TDEzNTYuNTExLDEwMDUuNDkzIj48L3BhdGg+PHBhdGggbWFya2VyLWVuZD0idXJsKCNnZU1lcm1haWRPdXRwdXQtMTc0MjE5OTU5Mzk2N19zdGF0ZURpYWdyYW0tYmFyYkVuZCkiIHN0eWxlPSI7ZmlsbDpub25lIiBjbGFzcz0iZWRnZS10aGlja25lc3Mtbm9ybWFsIGVkZ2UtcGF0dGVybi1zb2xpZCB0cmFuc2l0aW9uIiBpZD0iZWRnZTgiIGQ9Ik04ODMuNDIxLDg4Ni4wNTRMNzg4LjgyMSw4OTYuOTg0QzY5NC4yMjEsOTA3LjkxNSw1MDUuMDIxLDkyOS43NzUsMzk5LjgzNSw5NDkuNjgyQzI5NC42NDksOTY5LjU4OCwyNzMuNDc3LDk4Ny41NCwyNjIuODksOTk2LjUxN0wyNTIuMzA0LDEwMDUuNDkzIj48L3BhdGg+PHBhdGggbWFya2VyLWVuZD0idXJsKCNnZU1lcm1haWRPdXRwdXQtMTc0MjE5OTU5Mzk2N19zdGF0ZURpYWdyYW0tYmFyYkVuZCkiIHN0eWxlPSI7ZmlsbDpub25lIiBjbGFzcz0iZWRnZS10aGlja25lc3Mtbm9ybWFsIGVkZ2UtcGF0dGVybi1zb2xpZCB0cmFuc2l0aW9uIiBpZD0iZWRnZTkiIGQ9Ik05NTUuNTM4LDg5Ny43MjdMOTU1LjUzOCw5MDYuNzEyQzk1NS41MzgsOTE1LjY5Niw5NTUuNTM4LDkzMy42NjYsOTU1LjUzOCw5NTEuNjI3Qzk1NS41MzgsOTY5LjU4OCw5NTUuNTM4LDk4Ny41NCw5NTUuNTM4LDk5Ni41MTdMOTU1LjUzOCwxMDA1LjQ5MyI+PC9wYXRoPjxwYXRoIG1hcmtlci1lbmQ9InVybCgjZ2VNZXJtYWlkT3V0cHV0LTE3NDIxOTk1OTM5Njdfc3RhdGVEaWFncmFtLWJhcmJFbmQpIiBzdHlsZT0iO2ZpbGw6bm9uZSIgY2xhc3M9ImVkZ2UtdGhpY2tuZXNzLW5vcm1hbCBlZGdlLXBhdHRlcm4tc29saWQgdHJhbnNpdGlvbiIgaWQ9ImVkZ2UxMCIgZD0iTTg4My40MjEsODg5LjQzM0w4MTkuNTg0LDg5OS44Qzc1NS43NDcsOTEwLjE2Nyw2MjguMDcyLDkzMC45MDIsNTY0LjIzNSw5NTAuMjQ1QzUwMC4zOTgsOTY5LjU4OCw1MDAuMzk4LDk4Ny41NCw1MDAuMzk4LDk5Ni41MTdMNTAwLjM5OCwxMDA1LjQ5MyI+PC9wYXRoPjxwYXRoIG1hcmtlci1lbmQ9InVybCgjZ2VNZXJtYWlkT3V0cHV0LTE3NDIxOTk1OTM5Njdfc3RhdGVEaWFncmFtLWJhcmJFbmQpIiBzdHlsZT0iO2ZpbGw6bm9uZSIgY2xhc3M9ImVkZ2UtdGhpY2tuZXNzLW5vcm1hbCBlZGdlLXBhdHRlcm4tc29saWQgdHJhbnNpdGlvbiIgaWQ9ImVkZ2UxMSIgZD0iTTIxOS45MDEsMTAwNS40OTNMMjE1Ljk0OCw5OTYuNTE3QzIxMS45OTUsOTg3LjU0LDIwNC4wOSw5NjkuNTg4LDIwMC4xMzcsOTQ4LjI5M0MxOTYuMTg0LDkyNi45OTgsMTk2LjE4NCw5MDIuMzYsMTk2LjE4NCw4NzkuMTg4QzE5Ni4xODQsODU2LjAxNywxOTYuMTg0LDgzNC4zMTIsMjkyLjY0Niw4MTMuMzNDMzg5LjEwOCw3OTIuMzQ3LDU4Mi4wMzIsNzcyLjA4OCw2NzguNDk0LDc2MS45NThMNzc0Ljk1Niw3NTEuODI4Ij48L3BhdGg+PHBhdGggbWFya2VyLWVuZD0idXJsKCNnZU1lcm1haWRPdXRwdXQtMTc0MjE5OTU5Mzk2N19zdGF0ZURpYWdyYW0tYmFyYkVuZCkiIHN0eWxlPSI7ZmlsbDpub25lIiBjbGFzcz0iZWRnZS10aGlja25lc3Mtbm9ybWFsIGVkZ2UtcGF0dGVybi1zb2xpZCB0cmFuc2l0aW9uIiBpZD0iZWRnZTEyIiBkPSJNNTAwLjM5OCwxMDQ1LjUwNEw1MDAuMzk4LDEwNTMuMDEzQzUwMC4zOTgsMTA2MC41MjMsNTAwLjM5OCwxMDc1LjU0Miw1MDAuMzk4LDEwOTAuNTYxQzUwMC4zOTgsMTEwNS41OCw1MDAuMzk4LDExMjAuNTk5LDUwMC4zOTgsMTEyOC4xMDhMNTAwLjM5OCwxMTM1LjYxOCI+PC9wYXRoPjxwYXRoIG1hcmtlci1lbmQ9InVybCgjZ2VNZXJtYWlkT3V0cHV0LTE3NDIxOTk1OTM5Njdfc3RhdGVEaWFncmFtLWJhcmJFbmQpIiBzdHlsZT0iO2ZpbGw6bm9uZSIgY2xhc3M9ImVkZ2UtdGhpY2tuZXNzLW5vcm1hbCBlZGdlLXBhdHRlcm4tc29saWQgdHJhbnNpdGlvbiIgaWQ9ImVkZ2UxMyIgZD0iTTUwMC4zOTgsMTE3NS42MjlMNTAwLjM5OCwxMTgxLjY3MUM1MDAuMzk4LDExODcuNzE0LDUwMC4zOTgsMTE5OS44LDUwMC4zOTgsMTIxMS44ODZDNTAwLjM5OCwxMjIzLjk3MSw1MDAuMzk4LDEyMzYuMDU3LDUwMC4zOTgsMTI0Mi4xTDUwMC4zOTgsMTI0OC4xNDMiPjwvcGF0aD48cGF0aCBtYXJrZXItZW5kPSJ1cmwoI2dlTWVybWFpZE91dHB1dC0xNzQyMTk5NTkzOTY3X3N0YXRlRGlhZ3JhbS1iYXJiRW5kKSIgc3R5bGU9IjtmaWxsOm5vbmUiIGNsYXNzPSJlZGdlLXRoaWNrbmVzcy1ub3JtYWwgZWRnZS1wYXR0ZXJuLXNvbGlkIHRyYW5zaXRpb24iIGlkPSJlZGdlMTQiIGQ9Ik01MDAuMzk4LDEyODguMTU0TDUwMC4zOTgsMTI5Ny4xM0M1MDAuMzk4LDEzMDYuMTA2LDUwMC4zOTgsMTMyNC4wNTgsNTAwLjM5OCwxMzQyLjAxMUM1MDAuMzk4LDEzNTkuOTYzLDUwMC4zOTgsMTM3Ny45MTUsNTAwLjM5OCwxMzg2Ljg5Mkw1MDAuMzk4LDEzOTUuODY4Ij48L3BhdGg+PHBhdGggbWFya2VyLWVuZD0idXJsKCNnZU1lcm1haWRPdXRwdXQtMTc0MjE5OTU5Mzk2N19zdGF0ZURpYWdyYW0tYmFyYkVuZCkiIHN0eWxlPSI7ZmlsbDpub25lIiBjbGFzcz0iZWRnZS10aGlja25lc3Mtbm9ybWFsIGVkZ2UtcGF0dGVybi1zb2xpZCB0cmFuc2l0aW9uIiBpZD0iZWRnZTE1IiBkPSJNNTAwLjM5OCwxNDM1Ljg3OUw1MDAuMzk4LDE0NDMuMzg4QzUwMC4zOTgsMTQ1MC44OTgsNTAwLjM5OCwxNDY1LjkxNyw0NzAuODI1LDE0ODEuNjI4QzQ0MS4yNTIsMTQ5Ny4zMzksMzgyLjEwNSwxNTEzLjc0MywzNTIuNTMyLDE1MjEuOTQ1TDMyMi45NTksMTUzMC4xNDciPjwvcGF0aD48cGF0aCBtYXJrZXItZW5kPSJ1cmwoI2dlTWVybWFpZE91dHB1dC0xNzQyMTk5NTkzOTY3X3N0YXRlRGlhZ3JhbS1iYXJiRW5kKSIgc3R5bGU9IjtmaWxsOm5vbmUiIGNsYXNzPSJlZGdlLXRoaWNrbmVzcy1ub3JtYWwgZWRnZS1wYXR0ZXJuLXNvbGlkIHRyYW5zaXRpb24iIGlkPSJlZGdlMTYiIGQ9Ik0yMTIuNTAzLDE1MjUuOTkzTDE5Mi40OTUsMTUxOC40ODNDMTcyLjQ4NywxNTEwLjk3NCwxMzIuNDcyLDE0OTUuOTU1LDExMi40NjQsMTQ3Ny42MDFDOTIuNDU2LDE0NTkuMjQ4LDkyLjQ1NiwxNDM3LjU2MSw5Mi40NTYsMTQxNC40MDdDOTIuNDU2LDEzOTEuMjUyLDkyLjQ1NiwxMzY2LjYzMiw5Mi40NTYsMTM0Mi4wMTFDOTIuNDU2LDEzMTcuMzksOTIuNDU2LDEyOTIuNzY5LDkyLjQ1NiwxMjcxLjA4MkM5Mi40NTYsMTI0OS4zOTQsOTIuNDU2LDEyMzAuNjQsOTIuNDU2LDEyMTEuODg2QzkyLjQ1NiwxMTkzLjEzMiw5Mi40NTYsMTE3NC4zNzcsOTIuNDU2LDExNTQuMTU3QzkyLjQ1NiwxMTMzLjkzNiw5Mi40NTYsMTExMi4yNDgsOTIuNDU2LDEwOTAuNTYxQzkyLjQ1NiwxMDY4Ljg3Myw5Mi40NTYsMTA0Ny4xODYsOTIuNDU2LDEwMjQuMDMyQzkyLjQ1NiwxMDAwLjg3Nyw5Mi40NTYsOTc2LjI1Nyw5Mi40NTYsOTUxLjYyN0M5Mi40NTYsOTI2Ljk5OCw5Mi40NTYsOTAyLjM2LDkyLjQ1Niw4NzkuMTg4QzkyLjQ1Niw4NTYuMDE3LDkyLjQ1Niw4MzQuMzEyLDIwNi4yMDYsODEzLjIyN0MzMTkuOTU2LDc5Mi4xNDMsNTQ3LjQ1Niw3NzEuNjc4LDY2MS4yMDYsNzYxLjQ0Nkw3NzQuOTU2LDc1MS4yMTMiPjwvcGF0aD48cGF0aCBtYXJrZXItZW5kPSJ1cmwoI2dlTWVybWFpZE91dHB1dC0xNzQyMTk5NTkzOTY3X3N0YXRlRGlhZ3JhbS1iYXJiRW5kKSIgc3R5bGU9IjtmaWxsOm5vbmUiIGNsYXNzPSJlZGdlLXRoaWNrbmVzcy1ub3JtYWwgZWRnZS1wYXR0ZXJuLXNvbGlkIHRyYW5zaXRpb24iIGlkPSJlZGdlMTciIGQ9Ik0xMzU2LjUxMSwxMDQ1LjUwNEwxMzU2LjUxMSwxMDUzLjAxM0MxMzU2LjUxMSwxMDYwLjUyMywxMzU2LjUxMSwxMDc1LjU0MiwxMzU2LjUxMSwxMDkwLjU2MUMxMzU2LjUxMSwxMTA1LjU4LDEzNTYuNTExLDExMjAuNTk5LDEzNTYuNTExLDExMjguMTA4TDEzNTYuNTExLDExMzUuNjE4Ij48L3BhdGg+PHBhdGggbWFya2VyLWVuZD0idXJsKCNnZU1lcm1haWRPdXRwdXQtMTc0MjE5OTU5Mzk2N19zdGF0ZURpYWdyYW0tYmFyYkVuZCkiIHN0eWxlPSI7ZmlsbDpub25lIiBjbGFzcz0iZWRnZS10aGlja25lc3Mtbm9ybWFsIGVkZ2UtcGF0dGVybi1zb2xpZCB0cmFuc2l0aW9uIiBpZD0iZWRnZTE4IiBkPSJNMTM1Ni41MTEsMTE3NS42MjlMMTM1Ni41MTEsMTE4MS42NzFDMTM1Ni41MTEsMTE4Ny43MTQsMTM1Ni41MTEsMTE5OS44LDEzNTIuNzI2LDEyMTEuODg2QzEzNDguOTQsMTIyMy45NzEsMTM0MS4zNjksMTIzNi4wNTcsMTMzNy41ODMsMTI0Mi4xTDEzMzMuNzk4LDEyNDguMTQzIj48L3BhdGg+PHBhdGggbWFya2VyLWVuZD0idXJsKCNnZU1lcm1haWRPdXRwdXQtMTc0MjE5OTU5Mzk2N19zdGF0ZURpYWdyYW0tYmFyYkVuZCkiIHN0eWxlPSI7ZmlsbDpub25lIiBjbGFzcz0iZWRnZS10aGlja25lc3Mtbm9ybWFsIGVkZ2UtcGF0dGVybi1zb2xpZCB0cmFuc2l0aW9uIiBpZD0iZWRnZTE5IiBkPSJNMTMyMS4yNjUsMTI4OC4xNTRMMTMyMS4yNjUsMTI5Ny4xM0MxMzIxLjI2NSwxMzA2LjEwNiwxMzIxLjI2NSwxMzI0LjA1OCwxMzIxLjI2NSwxMzQyLjAxMUMxMzIxLjI2NSwxMzU5Ljk2MywxMzIxLjI2NSwxMzc3LjkxNSwxMzIxLjI2NSwxMzg2Ljg5MkwxMzIxLjI2NSwxMzk1Ljg2OCI+PC9wYXRoPjxwYXRoIG1hcmtlci1lbmQ9InVybCgjZ2VNZXJtYWlkT3V0cHV0LTE3NDIxOTk1OTM5Njdfc3RhdGVEaWFncmFtLWJhcmJFbmQpIiBzdHlsZT0iO2ZpbGw6bm9uZSIgY2xhc3M9ImVkZ2UtdGhpY2tuZXNzLW5vcm1hbCBlZGdlLXBhdHRlcm4tc29saWQgdHJhbnNpdGlvbiIgaWQ9ImVkZ2UyMCIgZD0iTTEyOTUuMzA3LDEyNDguMTQzTDEyODcuNDY2LDEyNDIuMUMxMjc5LjYyNSwxMjM2LjA1NywxMjYzLjk0MywxMjIzLjk3MSwxMjU2LjEwMiwxMjA4LjU1MUMxMjQ4LjI2MSwxMTkzLjEzMiwxMjQ4LjI2MSwxMTc0LjM3NywxMjQ4LjI2MSwxMTU0LjE1N0MxMjQ4LjI2MSwxMTMzLjkzNiwxMjQ4LjI2MSwxMTEyLjI0OCwxMjQ4LjI2MSwxMDkwLjU2MUMxMjQ4LjI2MSwxMDY4Ljg3MywxMjQ4LjI2MSwxMDQ3LjE4NiwxMjQ4LjI2MSwxMDI0LjAzMkMxMjQ4LjI2MSwxMDAwLjg3NywxMjQ4LjI2MSw5NzYuMjU3LDEyNDguMjYxLDk1MS42MjdDMTI0OC4yNjEsOTI2Ljk5OCwxMjQ4LjI2MSw5MDIuMzYsMTI0OC4yNjEsODc5LjE4OEMxMjQ4LjI2MSw4NTYuMDE3LDEyNDguMjYxLDgzNC4zMTIsMTI0OC4yNjEsODEyLjYxNkMxMjQ4LjI2MSw3OTAuOTIsMTI0OC4yNjEsNzY5LjIzMiwxMjQ4LjI2MSw3NDkuMDExQzEyNDguMjYxLDcyOC43OSwxMjQ4LjI2MSw3MTAuMDM2LDEyNDguMjYxLDY5MS4yODJDMTI0OC4yNjEsNjcyLjUyOCwxMjQ4LjI2MSw2NTMuNzc0LDEyNDguMjYxLDYzMy41NTNDMTI0OC4yNjEsNjEzLjMzMiwxMjQ4LjI2MSw1OTEuNjQ1LDEyNDguMjYxLDU2OS45NTdDMTI0OC4yNjEsNTQ4LjI3LDEyNDguMjYxLDUyNi41ODIsMTI0OC4yNjEsNTA0Ljg5NUMxMjQ4LjI2MSw0ODMuMjA3LDEyNDguMjYxLDQ2MS41MiwxMjQ4LjI2MSw0MzkuODMyQzEyNDguMjYxLDQxOC4xNDUsMTI0OC4yNjEsMzk2LjQ1NywxMjQ4LjI2MSwzNzMuMzAzQzEyNDguMjYxLDM1MC4xNDksMTI0OC4yNjEsMzI1LjUyOCwxMjQ4LjI2MSwzMDAuOTA3QzEyNDguMjYxLDI3Ni4yODYsMTI0OC4yNjEsMjUxLjY2NSwxMjQ4LjI2MSwyMjkuOTc4QzEyNDguMjYxLDIwOC4yOSwxMjQ4LjI2MSwxODkuNTM2LDEyMDYuNzE5LDE3MS41ODlDMTE2NS4xNzcsMTUzLjY0MiwxMDgyLjA5MiwxMzYuNTAyLDEwNDAuNTUsMTI3LjkzMUw5OTkuMDA4LDExOS4zNjEiPjwvcGF0aD48cGF0aCBtYXJrZXItZW5kPSJ1cmwoI2dlTWVybWFpZE91dHB1dC0xNzQyMTk5NTkzOTY3X3N0YXRlRGlhZ3JhbS1iYXJiRW5kKSIgc3R5bGU9IjtmaWxsOm5vbmUiIGNsYXNzPSJlZGdlLXRoaWNrbmVzcy1ub3JtYWwgZWRnZS1wYXR0ZXJuLXNvbGlkIHRyYW5zaXRpb24iIGlkPSJlZGdlMjEiIGQ9Ik0xMzIxLjI2NSwxNDM1Ljg3OUwxMzIxLjI2NSwxNDQzLjM4OEMxMzIxLjI2NSwxNDUwLjg5OCwxMzIxLjI2NSwxNDY1LjkxNywxMzE2LjE5NiwxNDgwLjkzNkMxMzExLjEyNywxNDk1Ljk1NSwxMzAwLjk5LDE1MTAuOTc0LDEyOTUuOTIxLDE1MTguNDgzTDEyOTAuODUyLDE1MjUuOTkzIj48L3BhdGg+PHBhdGggbWFya2VyLWVuZD0idXJsKCNnZU1lcm1haWRPdXRwdXQtMTc0MjE5OTU5Mzk2N19zdGF0ZURpYWdyYW0tYmFyYkVuZCkiIHN0eWxlPSI7ZmlsbDpub25lIiBjbGFzcz0iZWRnZS10aGlja25lc3Mtbm9ybWFsIGVkZ2UtcGF0dGVybi1zb2xpZCB0cmFuc2l0aW9uIiBpZD0iZWRnZTIyIiBkPSJNMTIzNC44NCwxNTI1Ljk5M0wxMjE4Ljg4NCwxNTE4LjQ4M0MxMjAyLjkyNywxNTEwLjk3NCwxMTcxLjAxNSwxNDk1Ljk1NSwxMTU1LjA1OCwxNDc3LjYwMUMxMTM5LjEwMiwxNDU5LjI0OCwxMTM5LjEwMiwxNDM3LjU2MSwxMTM5LjEwMiwxNDE0LjQwN0MxMTM5LjEwMiwxMzkxLjI1MiwxMTM5LjEwMiwxMzY2LjYzMiwxMTM5LjEwMiwxMzQyLjAxMUMxMTM5LjEwMiwxMzE3LjM5LDExMzkuMTAyLDEyOTIuNzY5LDExMzkuMTAyLDEyNzEuMDgyQzExMzkuMTAyLDEyNDkuMzk0LDExMzkuMTAyLDEyMzAuNjQsMTEzOS4xMDIsMTIxMS44ODZDMTEzOS4xMDIsMTE5My4xMzIsMTEzOS4xMDIsMTE3NC4zNzcsMTEzOS4xMDIsMTE1NC4xNTdDMTEzOS4xMDIsMTEzMy45MzYsMTEzOS4xMDIsMTExMi4yNDgsMTEzOS4xMDIsMTA5MC41NjFDMTEzOS4xMDIsMTA2OC44NzMsMTEzOS4xMDIsMTA0Ny4xODYsMTEzOS4xMDIsMTAyNC4wMzJDMTEzOS4xMDIsMTAwMC44NzcsMTEzOS4xMDIsOTc2LjI1NywxMTM5LjEwMiw5NTEuNjI3QzExMzkuMTAyLDkyNi45OTgsMTEzOS4xMDIsOTAyLjM2LDExMzkuMTAyLDg3OS4xODhDMTEzOS4xMDIsODU2LjAxNywxMTM5LjEwMiw4MzQuMzEyLDExMzkuMTAyLDgxMi42MTZDMTEzOS4xMDIsNzkwLjkyLDExMzkuMTAyLDc2OS4yMzIsMTEzOS4xMDIsNzQ5LjAxMUMxMTM5LjEwMiw3MjguNzksMTEzOS4xMDIsNzEwLjAzNiwxMTM5LjEwMiw2OTEuMjgyQzExMzkuMTAyLDY3Mi41MjgsMTEzOS4xMDIsNjUzLjc3NCwxMTM5LjEwMiw2MzMuNTUzQzExMzkuMTAyLDYxMy4zMzIsMTEzOS4xMDIsNTkxLjY0NSwxMTM5LjEwMiw1NjkuOTU3QzExMzkuMTAyLDU0OC4yNywxMTM5LjEwMiw1MjYuNTgyLDExMzkuMTAyLDUwNC44OTVDMTEzOS4xMDIsNDgzLjIwNywxMTM5LjEwMiw0NjEuNTIsMTEzOS4xMDIsNDM5LjgzMkMxMTM5LjEwMiw0MTguMTQ1LDExMzkuMTAyLDM5Ni40NTcsMTEzOS4xMDIsMzczLjMwM0MxMTM5LjEwMiwzNTAuMTQ5LDExMzkuMTAyLDMyNS41MjgsMTEzOS4xMDIsMzAwLjkwN0MxMTM5LjEwMiwyNzYuMjg2LDExMzkuMTAyLDI1MS42NjUsMTEzOS4xMDIsMjI5Ljk3OEMxMTM5LjEwMiwyMDguMjksMTEzOS4xMDIsMTg5LjUzNiwxMTE1Ljc1MywxNzIuMTI4QzEwOTIuNDA0LDE1NC43MTksMTA0NS43MDYsMTM4LjY1NiwxMDIyLjM1NywxMzAuNjI0TDk5OS4wMDgsMTIyLjU5MiI+PC9wYXRoPjxwYXRoIG1hcmtlci1lbmQ9InVybCgjZ2VNZXJtYWlkT3V0cHV0LTE3NDIxOTk1OTM5Njdfc3RhdGVEaWFncmFtLWJhcmJFbmQpIiBzdHlsZT0iO2ZpbGw6bm9uZSIgY2xhc3M9ImVkZ2UtdGhpY2tuZXNzLW5vcm1hbCBlZGdlLXBhdHRlcm4tc29saWQgdHJhbnNpdGlvbiIgaWQ9ImVkZ2UyMyIgZD0iTTk1NS41MzgsMTA0NS41MDRMOTU1LjUzOCwxMDUzLjAxM0M5NTUuNTM4LDEwNjAuNTIzLDk1NS41MzgsMTA3NS41NDIsOTMyLDEwOTAuNTYxQzkwOC40NjEsMTEwNS41OCw4NjEuMzg1LDExMjAuNTk5LDgzNy44NDYsMTEyOC4xMDhMODE0LjMwOCwxMTM1LjYxOCI+PC9wYXRoPjxwYXRoIG1hcmtlci1lbmQ9InVybCgjZ2VNZXJtYWlkT3V0cHV0LTE3NDIxOTk1OTM5Njdfc3RhdGVEaWFncmFtLWJhcmJFbmQpIiBzdHlsZT0iO2ZpbGw6bm9uZSIgY2xhc3M9ImVkZ2UtdGhpY2tuZXNzLW5vcm1hbCBlZGdlLXBhdHRlcm4tc29saWQgdHJhbnNpdGlvbiIgaWQ9ImVkZ2UyNCIgZD0iTTc1MS42MDEsMTEzNS42MThMNzUxLjYwMSwxMTI4LjEwOEM3NTEuNjAxLDExMjAuNTk5LDc1MS42MDEsMTEwNS41OCw3NTEuNjAxLDEwODcuMjI2Qzc1MS42MDEsMTA2OC44NzMsNzUxLjYwMSwxMDQ3LjE4Niw3NTEuNjAxLDEwMjQuMDMyQzc1MS42MDEsMTAwMC44NzcsNzUxLjYwMSw5NzYuMjU3LDc1MS42MDEsOTUxLjYyN0M3NTEuNjAxLDkyNi45OTgsNzUxLjYwMSw5MDIuMzYsNzUxLjYwMSw4NzkuMTg4Qzc1MS42MDEsODU2LjAxNyw3NTEuNjAxLDgzNC4zMTIsNzU5LjAwNCw4MTUuOTVDNzY2LjQwOCw3OTcuNTg4LDc4MS4yMTQsNzgyLjU2OSw3ODguNjE3LDc3NS4wNkw3OTYuMDIsNzY3LjU1Ij48L3BhdGg+PHBhdGggbWFya2VyLWVuZD0idXJsKCNnZU1lcm1haWRPdXRwdXQtMTc0MjE5OTU5Mzk2N19zdGF0ZURpYWdyYW0tYmFyYkVuZCkiIHN0eWxlPSI7ZmlsbDpub25lIiBjbGFzcz0iZWRnZS10aGlja25lc3Mtbm9ybWFsIGVkZ2UtcGF0dGVybi1zb2xpZCB0cmFuc2l0aW9uIiBpZD0iZWRnZTI1IiBkPSJNNzEyLjEwOCwxMTM1LjYxOEw2OTcuMjgzLDExMjguMTA4QzY4Mi40NTgsMTEyMC41OTksNjUyLjgwOCwxMTA1LjU4LDYzNy45ODQsMTA4Ny4yMjZDNjIzLjE1OSwxMDY4Ljg3Myw2MjMuMTU5LDEwNDcuMTg2LDYyMy4xNTksMTAyNC4wMzJDNjIzLjE1OSwxMDAwLjg3Nyw2MjMuMTU5LDk3Ni4yNTcsNjIzLjE1OSw5NTEuNjI3QzYyMy4xNTksOTI2Ljk5OCw2MjMuMTU5LDkwMi4zNiw2MjMuMTU5LDg3OS4xODhDNjIzLjE1OSw4NTYuMDE3LDYyMy4xNTksODM0LjMxMiw2MjMuMTU5LDgxMi42MTZDNjIzLjE1OSw3OTAuOTIsNjIzLjE1OSw3NjkuMjMyLDYyMy4xNTksNzQ5LjAxMUM2MjMuMTU5LDcyOC43OSw2MjMuMTU5LDcxMC4wMzYsNjIzLjE1OSw2OTEuMjgyQzYyMy4xNTksNjcyLjUyOCw2MjMuMTU5LDY1My43NzQsNjIzLjE1OSw2MzMuNTUzQzYyMy4xNTksNjEzLjMzMiw2MjMuMTU5LDU5MS42NDUsNjIzLjE1OSw1NjkuOTU3QzYyMy4xNTksNTQ4LjI3LDYyMy4xNTksNTI2LjU4Miw2MjMuMTU5LDUwNC44OTVDNjIzLjE1OSw0ODMuMjA3LDYyMy4xNTksNDYxLjUyLDYyMy4xNTksNDM5LjgzMkM2MjMuMTU5LDQxOC4xNDUsNjIzLjE1OSwzOTYuNDU3LDYyMy4xNTksMzczLjMwM0M2MjMuMTU5LDM1MC4xNDksNjIzLjE1OSwzMjUuNTI4LDYyMy4xNTksMzAwLjkwN0M2MjMuMTU5LDI3Ni4yODYsNjIzLjE1OSwyNTEuNjY1LDYyMy4xNTksMjI5Ljk3OEM2MjMuMTU5LDIwOC4yOSw2MjMuMTU5LDE4OS41MzYsNjc3Ljk3NywxNzEuNDA3QzczMi43OTYsMTUzLjI3Nyw4NDIuNDMzLDEzNS43NzIsODk3LjI1MiwxMjcuMDE5TDk1Mi4wNzEsMTE4LjI2NyI+PC9wYXRoPjwvZz48ZyBjbGFzcz0iZWRnZUxhYmVscyI+PGcgdHJhbnNmb3JtPSJ0cmFuc2xhdGUoOTc1LjUzOTU2MDMxNzk5MzIsIDU4LjI1NzE0MzAyMDYyOTg4KSIgY2xhc3M9ImVkZ2VMYWJlbCI+PGcgdHJhbnNmb3JtPSJ0cmFuc2xhdGUoLTU5LjczMTk0MTIyMzE0NDUzLCAtMTEuMjU3MTQzMDIwNjI5ODgzKSIgY2xhc3M9ImxhYmVsIj48Zz48cmVjdCBoZWlnaHQ9IjIyLjUxNDI4NjA0MTI1OTc2NiIgd2lkdGg9IjExOS40NjM4ODI0NDYyODkwNiIgeT0iLTEuNDI4NTcxNjQxNDQ1MTYiIHg9Ii0yIiBzdHlsZT0iIiBjbGFzcz0iYmFja2dyb3VuZCI+PC9yZWN0Pjx0ZXh0IHN0eWxlPSIiIHk9Ii0xMC4xIj48dHNwYW4gZHk9IjEuMWVtIiB5PSItMC4xZW0iIHg9IjAiIGNsYXNzPSJ0ZXh0LW91dGVyLXRzcGFuIj48dHNwYW4gZm9udC13ZWlnaHQ9Im5vcm1hbCIgY2xhc3M9InRleHQtaW5uZXItdHNwYW4iIGZvbnQtc3R5bGU9Im5vcm1hbCI+Tm88L3RzcGFuPjx0c3BhbiBmb250LXdlaWdodD0ibm9ybWFsIiBjbGFzcz0idGV4dC1pbm5lci10c3BhbiIgZm9udC1zdHlsZT0ibm9ybWFsIj4gUGVuZGluZzwvdHNwYW4+PHRzcGFuIGZvbnQtd2VpZ2h0PSJub3JtYWwiIGNsYXNzPSJ0ZXh0LWlubmVyLXRzcGFuIiBmb250LXN0eWxlPSJub3JtYWwiPiBUYXNrPC90c3Bhbj48L3RzcGFuPjwvdGV4dD48L2c+PC9nPjwvZz48ZyB0cmFuc2Zvcm09InRyYW5zbGF0ZSg4MTUuNzQyMDIxNTYwNjY5LCAxNzAuNzgyMTQ0NTQ2NTA4OCkiIGNsYXNzPSJlZGdlTGFiZWwiPjxnIHRyYW5zZm9ybT0idHJhbnNsYXRlKC03MC4xMzgzNTE0NDA0Mjk2OSwgLTExLjI1NzE0MzAyMDYyOTg4MykiIGNsYXNzPSJsYWJlbCI+PGc+PHJlY3QgaGVpZ2h0PSIyMi41MTQyODYwNDEyNTk3NjYiIHdpZHRoPSIxNDAuMjc2NzAyODgwODU5MzgiIHk9Ii0xLjQyODU3MTY0MTQ0NTE2IiB4PSItMiIgc3R5bGU9IiIgY2xhc3M9ImJhY2tncm91bmQiPjwvcmVjdD48dGV4dCBzdHlsZT0iIiB5PSItMTAuMSI+PHRzcGFuIGR5PSIxLjFlbSIgeT0iLTAuMWVtIiB4PSIwIiBjbGFzcz0idGV4dC1vdXRlci10c3BhbiI+PHRzcGFuIGZvbnQtd2VpZ2h0PSJub3JtYWwiIGNsYXNzPSJ0ZXh0LWlubmVyLXRzcGFuIiBmb250LXN0eWxlPSJub3JtYWwiPk5ldzwvdHNwYW4+PHRzcGFuIGZvbnQtd2VpZ2h0PSJub3JtYWwiIGNsYXNzPSJ0ZXh0LWlubmVyLXRzcGFuIiBmb250LXN0eWxlPSJub3JtYWwiPiBUYXNrPC90c3Bhbj48dHNwYW4gZm9udC13ZWlnaHQ9Im5vcm1hbCIgY2xhc3M9InRleHQtaW5uZXItdHNwYW4iIGZvbnQtc3R5bGU9Im5vcm1hbCI+IERldGVjdGVkPC90c3Bhbj48L3RzcGFuPjwvdGV4dD48L2c+PC9nPjwvZz48ZyB0cmFuc2Zvcm09InRyYW5zbGF0ZSg4MTUuNzQyMDIxNTYwNjY5LCAzMDAuOTA3MTQ0NTQ2NTA4OCkiIGNsYXNzPSJlZGdlTGFiZWwiPjxnIHRyYW5zZm9ybT0idHJhbnNsYXRlKC05NC4wNzUxNDE5MDY3MzgyOCwgLTI4Ljg1NzE0MTQ5NDc1MDk3NykiIGNsYXNzPSJsYWJlbCI+PGc+PHJlY3QgaGVpZ2h0PSI1Ny43MTQyODI5ODk1MDE5NSIgd2lkdGg9IjE4OC4xNTAyODM4MTM0NzY1NiIgeT0iLTEuNDI4NTcxNjQxNDQ1MTYiIHg9Ii0yIiBzdHlsZT0iIiBjbGFzcz0iYmFja2dyb3VuZCI+PC9yZWN0Pjx0ZXh0IHN0eWxlPSIiIHk9Ii0xMC4xIj48dHNwYW4gZHk9IjEuMWVtIiB5PSItMC4xZW0iIHg9IjAiIGNsYXNzPSJ0ZXh0LW91dGVyLXRzcGFuIj48dHNwYW4gZm9udC13ZWlnaHQ9Im5vcm1hbCIgY2xhc3M9InRleHQtaW5uZXItdHNwYW4iIGZvbnQtc3R5bGU9Im5vcm1hbCI+SW5pdGlhbGl6ZTwvdHNwYW4+PHRzcGFuIGZvbnQtd2VpZ2h0PSJub3JtYWwiIGNsYXNzPSJ0ZXh0LWlubmVyLXRzcGFuIiBmb250LXN0eWxlPSJub3JtYWwiPiBUYXNrXG4oQ2xlYXI8L3RzcGFuPjwvdHNwYW4+PHRzcGFuIGR5PSIxLjFlbSIgeT0iMWVtIiB4PSIwIiBjbGFzcz0idGV4dC1vdXRlci10c3BhbiI+PHRzcGFuIGZvbnQtd2VpZ2h0PSJub3JtYWwiIGNsYXNzPSJ0ZXh0LWlubmVyLXRzcGFuIiBmb250LXN0eWxlPSJub3JtYWwiPmNhbGxiYWNrcyxcbmRpc2FibGU8L3RzcGFuPjx0c3BhbiBmb250LXdlaWdodD0ibm9ybWFsIiBjbGFzcz0idGV4dC1pbm5lci10c3BhbiIgZm9udC1zdHlsZT0ibm9ybWFsIj4gU21hcnQ8L3RzcGFuPjwvdHNwYW4+PHRzcGFuIGR5PSIxLjFlbSIgeT0iMi4xZW0iIHg9IjAiIGNsYXNzPSJ0ZXh0LW91dGVyLXRzcGFuIj48dHNwYW4gZm9udC13ZWlnaHQ9Im5vcm1hbCIgY2xhc3M9InRleHQtaW5uZXItdHNwYW4iIGZvbnQtc3R5bGU9Im5vcm1hbCI+Q2hhcmdlKTwvdHNwYW4+PC90c3Bhbj48L3RleHQ+PC9nPjwvZz48L2c+PGcgdHJhbnNmb3JtPSJ0cmFuc2xhdGUoODE1Ljc0MjAyMTU2MDY2OSwgNDM5LjgzMjE0Mzc4MzU2OTM0KSIgY2xhc3M9ImVkZ2VMYWJlbCI+PGcgdHJhbnNmb3JtPSJ0cmFuc2xhdGUoLTg4LjQwNjgxNDU3NTE5NTMxLCAtMjAuMDU3MTQyMjU3NjkwNDMpIiBjbGFzcz0ibGFiZWwiPjxnPjxyZWN0IGhlaWdodD0iNDAuMTE0Mjg0NTE1MzgwODYiIHdpZHRoPSIxNzYuODEzNjI5MTUwMzkwNjIiIHk9Ii0xLjQyODU3MTY0MTQ0NTE2IiB4PSItMy4wMjg1NzE0ODY0NzMwODM1IiBzdHlsZT0iIiBjbGFzcz0iYmFja2dyb3VuZCI+PC9yZWN0Pjx0ZXh0IHN0eWxlPSIiIHk9Ii0xMC4xIj48dHNwYW4gZHk9IjEuMWVtIiB5PSItMC4xZW0iIHg9IjAiIGNsYXNzPSJ0ZXh0LW91dGVyLXRzcGFuIj48dHNwYW4gZm9udC13ZWlnaHQ9Im5vcm1hbCIgY2xhc3M9InRleHQtaW5uZXItdHNwYW4iIGZvbnQtc3R5bGU9Im5vcm1hbCI+Q2FsbDwvdHNwYW4+PHRzcGFuIGZvbnQtd2VpZ2h0PSJub3JtYWwiIGNsYXNzPSJ0ZXh0LWlubmVyLXRzcGFuIiBmb250LXN0eWxlPSJub3JtYWwiPiBNaXNzaW9uV29ya3M8L3RzcGFuPjwvdHNwYW4+PHRzcGFuIGR5PSIxLjFlbSIgeT0iMWVtIiB4PSIwIiBjbGFzcz0idGV4dC1vdXRlci10c3BhbiI+PHRzcGFuIGZvbnQtd2VpZ2h0PSJub3JtYWwiIGNsYXNzPSJ0ZXh0LWlubmVyLXRzcGFuIiBmb250LXN0eWxlPSJub3JtYWwiPkFQSVxuKE9idGFpbjwvdHNwYW4+PHRzcGFuIGZvbnQtd2VpZ2h0PSJub3JtYWwiIGNsYXNzPSJ0ZXh0LWlubmVyLXRzcGFuIiBmb250LXN0eWxlPSJub3JtYWwiPiBydW50aW1lSWQpPC90c3Bhbj48L3RzcGFuPjwvdGV4dD48L2c+PC9nPjwvZz48ZyB0cmFuc2Zvcm09InRyYW5zbGF0ZSg4MTUuNzQyMDIxNTYwNjY5LCA1NjkuOTU3MTQzNzgzNTY5MykiIGNsYXNzPSJlZGdlTGFiZWwiPjxnIHRyYW5zZm9ybT0idHJhbnNsYXRlKC05NC41NDI0MzQ2OTIzODI4MSwgLTIwLjA1NzE0MjI1NzY5MDQzKSIgY2xhc3M9ImxhYmVsIj48Zz48cmVjdCBoZWlnaHQ9IjQwLjExNDI4NDUxNTM4MDg2IiB3aWR0aD0iMTg5LjA4NDg2OTM4NDc2NTYyIiB5PSItMS40Mjg1NzE2NDE0NDUxNiIgeD0iLTMuMDI4NTcxNDg2NDczMDgzNSIgc3R5bGU9IiIgY2xhc3M9ImJhY2tncm91bmQiPjwvcmVjdD48dGV4dCBzdHlsZT0iIiB5PSItMTAuMSI+PHRzcGFuIGR5PSIxLjFlbSIgeT0iLTAuMWVtIiB4PSIwIiBjbGFzcz0idGV4dC1vdXRlci10c3BhbiI+PHRzcGFuIGZvbnQtd2VpZ2h0PSJub3JtYWwiIGNsYXNzPSJ0ZXh0LWlubmVyLXRzcGFuIiBmb250LXN0eWxlPSJub3JtYWwiPnJ1bnRpbWVJZDwvdHNwYW4+PHRzcGFuIGZvbnQtd2VpZ2h0PSJub3JtYWwiIGNsYXNzPSJ0ZXh0LWlubmVyLXRzcGFuIiBmb250LXN0eWxlPSJub3JtYWwiPiBSZWNlaXZlZFxuKExvZzwvdHNwYW4+PC90c3Bhbj48dHNwYW4gZHk9IjEuMWVtIiB5PSIxZW0iIHg9IjAiIGNsYXNzPSJ0ZXh0LW91dGVyLXRzcGFuIj48dHNwYW4gZm9udC13ZWlnaHQ9Im5vcm1hbCIgY2xhc3M9InRleHQtaW5uZXItdHNwYW4iIGZvbnQtc3R5bGU9Im5vcm1hbCI+VGFzazwvdHNwYW4+PHRzcGFuIGZvbnQtd2VpZ2h0PSJub3JtYWwiIGNsYXNzPSJ0ZXh0LWlubmVyLXRzcGFuIiBmb250LXN0eWxlPSJub3JtYWwiPiBTVEFSVEVEKTwvdHNwYW4+PC90c3Bhbj48L3RleHQ+PC9nPjwvZz48L2c+PGcgdHJhbnNmb3JtPSJ0cmFuc2xhdGUoODE1Ljc0MjAyMTU2MDY2OSwgNjkxLjI4MjE0NDU0NjUwODgpIiBjbGFzcz0iZWRnZUxhYmVsIj48ZyB0cmFuc2Zvcm09InRyYW5zbGF0ZSgtNzYuNzA5NDU3Mzk3NDYwOTQsIC0xMS4yNTcxNDMwMjA2Mjk4ODMpIiBjbGFzcz0ibGFiZWwiPjxnPjxyZWN0IGhlaWdodD0iMjIuNTE0Mjg2MDQxMjU5NzY2IiB3aWR0aD0iMTUzLjQxODkxNDc5NDkyMTg4IiB5PSItMS40Mjg1NzE2NDE0NDUxNiIgeD0iLTIiIHN0eWxlPSIiIGNsYXNzPSJiYWNrZ3JvdW5kIj48L3JlY3Q+PHRleHQgc3R5bGU9IiIgeT0iLTEwLjEiPjx0c3BhbiBkeT0iMS4xZW0iIHk9Ii0wLjFlbSIgeD0iMCIgY2xhc3M9InRleHQtb3V0ZXItdHNwYW4iPjx0c3BhbiBmb250LXdlaWdodD0ibm9ybWFsIiBjbGFzcz0idGV4dC1pbm5lci10c3BhbiIgZm9udC1zdHlsZT0ibm9ybWFsIj5CZWdpbjwvdHNwYW4+PHRzcGFuIGZvbnQtd2VpZ2h0PSJub3JtYWwiIGNsYXNzPSJ0ZXh0LWlubmVyLXRzcGFuIiBmb250LXN0eWxlPSJub3JtYWwiPiBUYXNrPC90c3Bhbj48dHNwYW4gZm9udC13ZWlnaHQ9Im5vcm1hbCIgY2xhc3M9InRleHQtaW5uZXItdHNwYW4iIGZvbnQtc3R5bGU9Im5vcm1hbCI+IEV4ZWN1dGlvbjwvdHNwYW4+PC90c3Bhbj48L3RleHQ+PC9nPjwvZz48L2c+PGcgdHJhbnNmb3JtPSJ0cmFuc2xhdGUoOTU1LjUzODI5NTc0NTg0OTYsIDgxMi42MDcxNDUzMDk0NDgyKSIgY2xhc3M9ImVkZ2VMYWJlbCI+PGcgdHJhbnNmb3JtPSJ0cmFuc2xhdGUoLTc1LjY5Nzg5MTIzNTM1MTU2LCAtMjAuMDU3MTQyMjU3NjkwNDMpIiBjbGFzcz0ibGFiZWwiPjxnPjxyZWN0IGhlaWdodD0iNDAuMTE0Mjg0NTE1MzgwODYiIHdpZHRoPSIxNTEuMzk1NzgyNDcwNzAzMTIiIHk9Ii0xLjQyODU3MTY0MTQ0NTE2IiB4PSItMiIgc3R5bGU9IiIgY2xhc3M9ImJhY2tncm91bmQiPjwvcmVjdD48dGV4dCBzdHlsZT0iIiB5PSItMTAuMSI+PHRzcGFuIGR5PSIxLjFlbSIgeT0iLTAuMWVtIiB4PSIwIiBjbGFzcz0idGV4dC1vdXRlci10c3BhbiI+PHRzcGFuIGZvbnQtd2VpZ2h0PSJub3JtYWwiIGNsYXNzPSJ0ZXh0LWlubmVyLXRzcGFuIiBmb250LXN0eWxlPSJub3JtYWwiPkV2ZXJ5PC90c3Bhbj48dHNwYW4gZm9udC13ZWlnaHQ9Im5vcm1hbCIgY2xhc3M9InRleHQtaW5uZXItdHNwYW4iIGZvbnQtc3R5bGU9Im5vcm1hbCI+IDEwPC90c3Bhbj48dHNwYW4gZm9udC13ZWlnaHQ9Im5vcm1hbCIgY2xhc3M9InRleHQtaW5uZXItdHNwYW4iIGZvbnQtc3R5bGU9Im5vcm1hbCI+IHNlY1xuQ2hlY2s8L3RzcGFuPjwvdHNwYW4+PHRzcGFuIGR5PSIxLjFlbSIgeT0iMWVtIiB4PSIwIiBjbGFzcz0idGV4dC1vdXRlci10c3BhbiI+PHRzcGFuIGZvbnQtd2VpZ2h0PSJub3JtYWwiIGNsYXNzPSJ0ZXh0LWlubmVyLXRzcGFuIiBmb250LXN0eWxlPSJub3JtYWwiPkNhbGxiYWNrPC90c3Bhbj48dHNwYW4gZm9udC13ZWlnaHQ9Im5vcm1hbCIgY2xhc3M9InRleHQtaW5uZXItdHNwYW4iIGZvbnQtc3R5bGU9Im5vcm1hbCI+IFJlc3BvbnNlPC90c3Bhbj48L3RzcGFuPjwvdGV4dD48L2c+PC9nPjwvZz48ZyB0cmFuc2Zvcm09InRyYW5zbGF0ZSgxMzU2LjUxMTE5MjMyMTc3NzMsIDk1MS42MzU3MTM1NzcyNzA1KSIgY2xhc3M9ImVkZ2VMYWJlbCI+PGcgdHJhbnNmb3JtPSJ0cmFuc2xhdGUoLTc4LjcxNjk3MjM1MTA3NDIyLCAtMjAuMDU3MTQyMjU3NjkwNDMpIiBjbGFzcz0ibGFiZWwiPjxnPjxyZWN0IGhlaWdodD0iNDAuMTE0Mjg0NTE1MzgwODYiIHdpZHRoPSIxNTcuNDMzOTQ0NzAyMTQ4NDQiIHk9Ii0xLjQyODU3MTY0MTQ0NTE2IiB4PSItMiIgc3R5bGU9IiIgY2xhc3M9ImJhY2tncm91bmQiPjwvcmVjdD48dGV4dCBzdHlsZT0iIiB5PSItMTAuMSI+PHRzcGFuIGR5PSIxLjFlbSIgeT0iLTAuMWVtIiB4PSIwIiBjbGFzcz0idGV4dC1vdXRlci10c3BhbiI+PHRzcGFuIGZvbnQtd2VpZ2h0PSJub3JtYWwiIGNsYXNzPSJ0ZXh0LWlubmVyLXRzcGFuIiBmb250LXN0eWxlPSJub3JtYWwiPklmPC90c3Bhbj48dHNwYW4gZm9udC13ZWlnaHQ9Im5vcm1hbCIgY2xhc3M9InRleHQtaW5uZXItdHNwYW4iIGZvbnQtc3R5bGU9Im5vcm1hbCI+IENhbGxiYWNrPC90c3Bhbj48dHNwYW4gZm9udC13ZWlnaHQ9Im5vcm1hbCIgY2xhc3M9InRleHQtaW5uZXItdHNwYW4iIGZvbnQtc3R5bGU9Im5vcm1hbCI+ID08L3RzcGFuPjwvdHNwYW4+PHRzcGFuIGR5PSIxLjFlbSIgeT0iMWVtIiB4PSIwIiBjbGFzcz0idGV4dC1vdXRlci10c3BhbiI+PHRzcGFuIGZvbnQtd2VpZ2h0PSJub3JtYWwiIGNsYXNzPSJ0ZXh0LWlubmVyLXRzcGFuIiBmb250LXN0eWxlPSJub3JtYWwiPiZhbXA7cXVvdDtTdWNjZXNzJmFtcDtxdW90OzwvdHNwYW4+PC90c3Bhbj48L3RleHQ+PC9nPjwvZz48L2c+PGcgdHJhbnNmb3JtPSJ0cmFuc2xhdGUoMzE1LjgyMTUwNjUwMDI0NDE0LCA5NTEuNjM1NzEzNTc3MjcwNSkiIGNsYXNzPSJlZGdlTGFiZWwiPjxnIHRyYW5zZm9ybT0idHJhbnNsYXRlKC05OS42MzcwODQ5NjA5Mzc1LCAtMjguODU3MTQxNDk0NzUwOTc3KSIgY2xhc3M9ImxhYmVsIj48Zz48cmVjdCBoZWlnaHQ9IjU3LjcxNDI4Mjk4OTUwMTk1IiB3aWR0aD0iMTk5LjI3NDE2OTkyMTg3NSIgeT0iLTEuNDI4NTcxNjQxNDQ1MTYiIHg9Ii0zLjAyODU3MTQ4NjQ3MzA4MzUiIHN0eWxlPSIiIGNsYXNzPSJiYWNrZ3JvdW5kIj48L3JlY3Q+PHRleHQgc3R5bGU9IiIgeT0iLTEwLjEiPjx0c3BhbiBkeT0iMS4xZW0iIHk9Ii0wLjFlbSIgeD0iMCIgY2xhc3M9InRleHQtb3V0ZXItdHNwYW4iPjx0c3BhbiBmb250LXdlaWdodD0ibm9ybWFsIiBjbGFzcz0idGV4dC1pbm5lci10c3BhbiIgZm9udC1zdHlsZT0ibm9ybWFsIj5JZjwvdHNwYW4+PHRzcGFuIGZvbnQtd2VpZ2h0PSJub3JtYWwiIGNsYXNzPSJ0ZXh0LWlubmVyLXRzcGFuIiBmb250LXN0eWxlPSJub3JtYWwiPiBDYWxsYmFjazwvdHNwYW4+PHRzcGFuIGZvbnQtd2VpZ2h0PSJub3JtYWwiIGNsYXNzPSJ0ZXh0LWlubmVyLXRzcGFuIiBmb250LXN0eWxlPSJub3JtYWwiPiBub3Q8L3RzcGFuPjwvdHNwYW4+PHRzcGFuIGR5PSIxLjFlbSIgeT0iMWVtIiB4PSIwIiBjbGFzcz0idGV4dC1vdXRlci10c3BhbiI+PHRzcGFuIGZvbnQtd2VpZ2h0PSJub3JtYWwiIGNsYXNzPSJ0ZXh0LWlubmVyLXRzcGFuIiBmb250LXN0eWxlPSJub3JtYWwiPiZhbXA7cXVvdDtTdWNjZXNzJmFtcDtxdW90O1xuYW5kPC90c3Bhbj48L3RzcGFuPjx0c3BhbiBkeT0iMS4xZW0iIHk9IjIuMWVtIiB4PSIwIiBjbGFzcz0idGV4dC1vdXRlci10c3BhbiI+PHRzcGFuIGZvbnQtd2VpZ2h0PSJub3JtYWwiIGNsYXNzPSJ0ZXh0LWlubmVyLXRzcGFuIiBmb250LXN0eWxlPSJub3JtYWwiPkFNUjwvdHNwYW4+PHRzcGFuIGZvbnQtd2VpZ2h0PSJub3JtYWwiIGNsYXNzPSJ0ZXh0LWlubmVyLXRzcGFuIiBmb250LXN0eWxlPSJub3JtYWwiPiBPSzwvdHNwYW4+PC90c3Bhbj48L3RleHQ+PC9nPjwvZz48L2c+PGcgdHJhbnNmb3JtPSJ0cmFuc2xhdGUoOTU1LjUzODI5NTc0NTg0OTYsIDk1MS42MzU3MTM1NzcyNzA1KSIgY2xhc3M9ImVkZ2VMYWJlbCI+PGcgdHJhbnNmb3JtPSJ0cmFuc2xhdGUoLTEwMi43ODY3MDUwMTcwODk4NCwgLTI4Ljg1NzE0MTQ5NDc1MDk3NykiIGNsYXNzPSJsYWJlbCI+PGc+PHJlY3QgaGVpZ2h0PSI1Ny43MTQyODI5ODk1MDE5NSIgd2lkdGg9IjIwNS41NzM0MTAwMzQxNzk3IiB5PSItMS40Mjg1NzE2NDE0NDUxNiIgeD0iLTMuMDI4NTcxNDg2NDczMDgzNSIgc3R5bGU9IiIgY2xhc3M9ImJhY2tncm91bmQiPjwvcmVjdD48dGV4dCBzdHlsZT0iIiB5PSItMTAuMSI+PHRzcGFuIGR5PSIxLjFlbSIgeT0iLTAuMWVtIiB4PSIwIiBjbGFzcz0idGV4dC1vdXRlci10c3BhbiI+PHRzcGFuIGZvbnQtd2VpZ2h0PSJub3JtYWwiIGNsYXNzPSJ0ZXh0LWlubmVyLXRzcGFuIiBmb250LXN0eWxlPSJub3JtYWwiPklmPC90c3Bhbj48dHNwYW4gZm9udC13ZWlnaHQ9Im5vcm1hbCIgY2xhc3M9InRleHQtaW5uZXItdHNwYW4iIGZvbnQtc3R5bGU9Im5vcm1hbCI+IEFNUjwvdHNwYW4+PC90c3Bhbj48dHNwYW4gZHk9IjEuMWVtIiB5PSIxZW0iIHg9IjAiIGNsYXNzPSJ0ZXh0LW91dGVyLXRzcGFuIj48dHNwYW4gZm9udC13ZWlnaHQ9Im5vcm1hbCIgY2xhc3M9InRleHQtaW5uZXItdHNwYW4iIGZvbnQtc3R5bGU9Im5vcm1hbCI+QWJub3JtYWxcbihhYm5vcm1hbFN0YXR1czwvdHNwYW4+PC90c3Bhbj48dHNwYW4gZHk9IjEuMWVtIiB5PSIyLjFlbSIgeD0iMCIgY2xhc3M9InRleHQtb3V0ZXItdHNwYW4iPjx0c3BhbiBmb250LXdlaWdodD0ibm9ybWFsIiBjbGFzcz0idGV4dC1pbm5lci10c3BhbiIgZm9udC1zdHlsZT0ibm9ybWFsIj7iiaA8L3RzcGFuPjx0c3BhbiBmb250LXdlaWdodD0ibm9ybWFsIiBjbGFzcz0idGV4dC1pbm5lci10c3BhbiIgZm9udC1zdHlsZT0ibm9ybWFsIj4gMSk8L3RzcGFuPjwvdHNwYW4+PC90ZXh0PjwvZz48L2c+PC9nPjxnIHRyYW5zZm9ybT0idHJhbnNsYXRlKDUwMC4zOTc4ODgxODM1OTM3NSwgOTUxLjYzNTcxMzU3NzI3MDUpIiBjbGFzcz0iZWRnZUxhYmVsIj48ZyB0cmFuc2Zvcm09InRyYW5zbGF0ZSgtNTguNjI0NTk1NjQyMDg5ODQ0LCAtMTEuMjU3MTQzMDIwNjI5ODgzKSIgY2xhc3M9ImxhYmVsIj48Zz48cmVjdCBoZWlnaHQ9IjIyLjUxNDI4NjA0MTI1OTc2NiIgd2lkdGg9IjExNy4yNDkxOTEyODQxNzk2OSIgeT0iLTEuNDI4NTcxNjQxNDQ1MTYiIHg9Ii0yIiBzdHlsZT0iIiBjbGFzcz0iYmFja2dyb3VuZCI+PC9yZWN0Pjx0ZXh0IHN0eWxlPSIiIHk9Ii0xMC4xIj48dHNwYW4gZHk9IjEuMWVtIiB5PSItMC4xZW0iIHg9IjAiIGNsYXNzPSJ0ZXh0LW91dGVyLXRzcGFuIj48dHNwYW4gZm9udC13ZWlnaHQ9Im5vcm1hbCIgY2xhc3M9InRleHQtaW5uZXItdHNwYW4iIGZvbnQtc3R5bGU9Im5vcm1hbCI+SWY8L3RzcGFuPjx0c3BhbiBmb250LXdlaWdodD0ibm9ybWFsIiBjbGFzcz0idGV4dC1pbm5lci10c3BhbiIgZm9udC1zdHlsZT0ibm9ybWFsIj4gQmF0dGVyeTwvdHNwYW4+PHRzcGFuIGZvbnQtd2VpZ2h0PSJub3JtYWwiIGNsYXNzPSJ0ZXh0LWlubmVyLXRzcGFuIiBmb250LXN0eWxlPSJub3JtYWwiPiDiiaQ8L3RzcGFuPjx0c3BhbiBmb250LXdlaWdodD0ibm9ybWFsIiBjbGFzcz0idGV4dC1pbm5lci10c3BhbiIgZm9udC1zdHlsZT0ibm9ybWFsIj4gMTAlPC90c3Bhbj48L3RzcGFuPjwvdGV4dD48L2c+PC9nPjwvZz48ZyB0cmFuc2Zvcm09InRyYW5zbGF0ZSgxOTYuMTg0NDIxNTM5MzA2NjQsIDg3Ny43MjE0Mjk4MjQ4MjkxKSIgY2xhc3M9ImVkZ2VMYWJlbCI+PGcgdHJhbnNmb3JtPSJ0cmFuc2xhdGUoLTcwLjc1MzQ5NDI2MjY5NTMxLCAtMjAuMDU3MTQyMjU3NjkwNDMpIiBjbGFzcz0ibGFiZWwiPjxnPjxyZWN0IGhlaWdodD0iNDAuMTE0Mjg0NTE1MzgwODYiIHdpZHRoPSIxNDEuNTA2OTg4NTI1MzkwNjIiIHk9Ii0xLjQyODU3MTY0MTQ0NTE2IiB4PSItMiIgc3R5bGU9IiIgY2xhc3M9ImJhY2tncm91bmQiPjwvcmVjdD48dGV4dCBzdHlsZT0iIiB5PSItMTAuMSI+PHRzcGFuIGR5PSIxLjFlbSIgeT0iLTAuMWVtIiB4PSIwIiBjbGFzcz0idGV4dC1vdXRlci10c3BhbiI+PHRzcGFuIGZvbnQtd2VpZ2h0PSJub3JtYWwiIGNsYXNzPSJ0ZXh0LWlubmVyLXRzcGFuIiBmb250LXN0eWxlPSJub3JtYWwiPlJlc3VtZTwvdHNwYW4+PHRzcGFuIGZvbnQtd2VpZ2h0PSJub3JtYWwiIGNsYXNzPSJ0ZXh0LWlubmVyLXRzcGFuIiBmb250LXN0eWxlPSJub3JtYWwiPiBUYXNrXG4oQ2FsbDwvdHNwYW4+PC90c3Bhbj48dHNwYW4gZHk9IjEuMWVtIiB5PSIxZW0iIHg9IjAiIGNsYXNzPSJ0ZXh0LW91dGVyLXRzcGFuIj48dHNwYW4gZm9udC13ZWlnaHQ9Im5vcm1hbCIgY2xhc3M9InRleHQtaW5uZXItdHNwYW4iIGZvbnQtc3R5bGU9Im5vcm1hbCI+cmVzdW1lVGFzazwvdHNwYW4+PHRzcGFuIGZvbnQtd2VpZ2h0PSJub3JtYWwiIGNsYXNzPSJ0ZXh0LWlubmVyLXRzcGFuIiBmb250LXN0eWxlPSJub3JtYWwiPiBBUEkpPC90c3Bhbj48L3RzcGFuPjwvdGV4dD48L2c+PC9nPjwvZz48ZyB0cmFuc2Zvcm09InRyYW5zbGF0ZSg1MDAuMzk3ODg4MTgzNTkzNzUsIDEwOTAuNTYwNzEyODE0MzMxKSIgY2xhc3M9ImVkZ2VMYWJlbCI+PGcgdHJhbnNmb3JtPSJ0cmFuc2xhdGUoLTEwMi43NjA3NzI3MDUwNzgxMiwgLTIwLjA1NzE0MjI1NzY5MDQzKSIgY2xhc3M9ImxhYmVsIj48Zz48cmVjdCBoZWlnaHQ9IjQwLjExNDI4NDUxNTM4MDg2IiB3aWR0aD0iMjA1LjUyMTU0NTQxMDE1NjI1IiB5PSItMS40Mjg1NzE2NDE0NDUxNiIgeD0iLTMuMDI4NTcxNDg2NDczMDgzNSIgc3R5bGU9IiIgY2xhc3M9ImJhY2tncm91bmQiPjwvcmVjdD48dGV4dCBzdHlsZT0iIiB5PSItMTAuMSI+PHRzcGFuIGR5PSIxLjFlbSIgeT0iLTAuMWVtIiB4PSIwIiBjbGFzcz0idGV4dC1vdXRlci10c3BhbiI+PHRzcGFuIGZvbnQtd2VpZ2h0PSJub3JtYWwiIGNsYXNzPSJ0ZXh0LWlubmVyLXRzcGFuIiBmb250LXN0eWxlPSJub3JtYWwiPlBhdXNlPC90c3Bhbj48dHNwYW4gZm9udC13ZWlnaHQ9Im5vcm1hbCIgY2xhc3M9InRleHQtaW5uZXItdHNwYW4iIGZvbnQtc3R5bGU9Im5vcm1hbCI+IFRhc2tcbihDYWxsPC90c3Bhbj48dHNwYW4gZm9udC13ZWlnaHQ9Im5vcm1hbCIgY2xhc3M9InRleHQtaW5uZXItdHNwYW4iIGZvbnQtc3R5bGU9Im5vcm1hbCI+IHBhdXNlVGFzazwvdHNwYW4+PC90c3Bhbj48dHNwYW4gZHk9IjEuMWVtIiB5PSIxZW0iIHg9IjAiIGNsYXNzPSJ0ZXh0LW91dGVyLXRzcGFuIj48dHNwYW4gZm9udC13ZWlnaHQ9Im5vcm1hbCIgY2xhc3M9InRleHQtaW5uZXItdHNwYW4iIGZvbnQtc3R5bGU9Im5vcm1hbCI+QVBJKTwvdHNwYW4+PC90c3Bhbj48L3RleHQ+PC9nPjwvZz48L2c+PGcgdHJhbnNmb3JtPSJ0cmFuc2xhdGUoNTAwLjM5Nzg4ODE4MzU5Mzc1LCAxMjExLjg4NTcxMzU3NzI3MDUpIiBjbGFzcz0iZWRnZUxhYmVsIj48ZyB0cmFuc2Zvcm09InRyYW5zbGF0ZSgtNzYuMjg2MTc4NTg4ODY3MTksIC0xMS4yNTcxNDMwMjA2Mjk4ODMpIiBjbGFzcz0ibGFiZWwiPjxnPjxyZWN0IGhlaWdodD0iMjIuNTE0Mjg2MDQxMjU5NzY2IiB3aWR0aD0iMTUyLjU3MjM1NzE3NzczNDM4IiB5PSItMS40Mjg1NzE2NDE0NDUxNiIgeD0iLTIiIHN0eWxlPSIiIGNsYXNzPSJiYWNrZ3JvdW5kIj48L3JlY3Q+PHRleHQgc3R5bGU9IiIgeT0iLTEwLjEiPjx0c3BhbiBkeT0iMS4xZW0iIHk9Ii0wLjFlbSIgeD0iMCIgY2xhc3M9InRleHQtb3V0ZXItdHNwYW4iPjx0c3BhbiBmb250LXdlaWdodD0ibm9ybWFsIiBjbGFzcz0idGV4dC1pbm5lci10c3BhbiIgZm9udC1zdHlsZT0ibm9ybWFsIj5FbnRlcjwvdHNwYW4+PHRzcGFuIGZvbnQtd2VpZ2h0PSJub3JtYWwiIGNsYXNzPSJ0ZXh0LWlubmVyLXRzcGFuIiBmb250LXN0eWxlPSJub3JtYWwiPiBDaGFyZ2luZzwvdHNwYW4+PHRzcGFuIGZvbnQtd2VpZ2h0PSJub3JtYWwiIGNsYXNzPSJ0ZXh0LWlubmVyLXRzcGFuIiBmb250LXN0eWxlPSJub3JtYWwiPiBTdGF0ZTwvdHNwYW4+PC90c3Bhbj48L3RleHQ+PC9nPjwvZz48L2c+PGcgdHJhbnNmb3JtPSJ0cmFuc2xhdGUoNTAwLjM5Nzg4ODE4MzU5Mzc1LCAxMzQyLjAxMDcxMzU3NzI3MDUpIiBjbGFzcz0iZWRnZUxhYmVsIj48ZyB0cmFuc2Zvcm09InRyYW5zbGF0ZSgtODkuODg2NjExOTM4NDc2NTYsIC0yOC44NTcxNDE0OTQ3NTA5NzcpIiBjbGFzcz0ibGFiZWwiPjxnPjxyZWN0IGhlaWdodD0iNTcuNzE0MjgyOTg5NTAxOTUiIHdpZHRoPSIxNzkuNzczMjIzODc2OTUzMTIiIHk9Ii0xLjQyODU3MTY0MTQ0NTE2IiB4PSItMy4wMjg1NzE0ODY0NzMwODM1IiBzdHlsZT0iIiBjbGFzcz0iYmFja2dyb3VuZCI+PC9yZWN0Pjx0ZXh0IHN0eWxlPSIiIHk9Ii0xMC4xIj48dHNwYW4gZHk9IjEuMWVtIiB5PSItMC4xZW0iIHg9IjAiIGNsYXNzPSJ0ZXh0LW91dGVyLXRzcGFuIj48dHNwYW4gZm9udC13ZWlnaHQ9Im5vcm1hbCIgY2xhc3M9InRleHQtaW5uZXItdHNwYW4iIGZvbnQtc3R5bGU9Im5vcm1hbCI+V2FpdDwvdHNwYW4+PHRzcGFuIGZvbnQtd2VpZ2h0PSJub3JtYWwiIGNsYXNzPSJ0ZXh0LWlubmVyLXRzcGFuIiBmb250LXN0eWxlPSJub3JtYWwiPiB1bnRpbDwvdHNwYW4+PHRzcGFuIGZvbnQtd2VpZ2h0PSJub3JtYWwiIGNsYXNzPSJ0ZXh0LWlubmVyLXRzcGFuIiBmb250LXN0eWxlPSJub3JtYWwiPiBCYXR0ZXJ5PC90c3Bhbj48dHNwYW4gZm9udC13ZWlnaHQ9Im5vcm1hbCIgY2xhc3M9InRleHQtaW5uZXItdHNwYW4iIGZvbnQtc3R5bGU9Im5vcm1hbCI+IOKJpTwvdHNwYW4+PC90c3Bhbj48dHNwYW4gZHk9IjEuMWVtIiB5PSIxZW0iIHg9IjAiIGNsYXNzPSJ0ZXh0LW91dGVyLXRzcGFuIj48dHNwYW4gZm9udC13ZWlnaHQ9Im5vcm1hbCIgY2xhc3M9InRleHQtaW5uZXItdHNwYW4iIGZvbnQtc3R5bGU9Im5vcm1hbCI+Q2hhcmdlVGhyZXNob2xkXG4oZS5nLiw8L3RzcGFuPjwvdHNwYW4+PHRzcGFuIGR5PSIxLjFlbSIgeT0iMi4xZW0iIHg9IjAiIGNsYXNzPSJ0ZXh0LW91dGVyLXRzcGFuIj48dHNwYW4gZm9udC13ZWlnaHQ9Im5vcm1hbCIgY2xhc3M9InRleHQtaW5uZXItdHNwYW4iIGZvbnQtc3R5bGU9Im5vcm1hbCI+MzAlKTwvdHNwYW4+PC90c3Bhbj48L3RleHQ+PC9nPjwvZz48L2c+PGcgdHJhbnNmb3JtPSJ0cmFuc2xhdGUoNTAwLjM5Nzg4ODE4MzU5Mzc1LCAxNDgwLjkzNTcxMjgxNDMzMSkiIGNsYXNzPSJlZGdlTGFiZWwiPjxnIHRyYW5zZm9ybT0idHJhbnNsYXRlKC04OS41MDg4ODA2MTUyMzQzOCwgLTIwLjA1NzE0MjI1NzY5MDQzKSIgY2xhc3M9ImxhYmVsIj48Zz48cmVjdCBoZWlnaHQ9IjQwLjExNDI4NDUxNTM4MDg2IiB3aWR0aD0iMTc5LjAxNzc2MTIzMDQ2ODc1IiB5PSItMS40Mjg1NzE2NDE0NDUxNiIgeD0iLTIiIHN0eWxlPSIiIGNsYXNzPSJiYWNrZ3JvdW5kIj48L3JlY3Q+PHRleHQgc3R5bGU9IiIgeT0iLTEwLjEiPjx0c3BhbiBkeT0iMS4xZW0iIHk9Ii0wLjFlbSIgeD0iMCIgY2xhc3M9InRleHQtb3V0ZXItdHNwYW4iPjx0c3BhbiBmb250LXdlaWdodD0ibm9ybWFsIiBjbGFzcz0idGV4dC1pbm5lci10c3BhbiIgZm9udC1zdHlsZT0ibm9ybWFsIj5CYXR0ZXJ5PC90c3Bhbj48dHNwYW4gZm9udC13ZWlnaHQ9Im5vcm1hbCIgY2xhc3M9InRleHQtaW5uZXItdHNwYW4iIGZvbnQtc3R5bGU9Im5vcm1hbCI+IFN1ZmZpY2llbnRcbihDYWxsPC90c3Bhbj48L3RzcGFuPjx0c3BhbiBkeT0iMS4xZW0iIHk9IjFlbSIgeD0iMCIgY2xhc3M9InRleHQtb3V0ZXItdHNwYW4iPjx0c3BhbiBmb250LXdlaWdodD0ibm9ybWFsIiBjbGFzcz0idGV4dC1pbm5lci10c3BhbiIgZm9udC1zdHlsZT0ibm9ybWFsIj5yZXN1bWVUYXNrPC90c3Bhbj48dHNwYW4gZm9udC13ZWlnaHQ9Im5vcm1hbCIgY2xhc3M9InRleHQtaW5uZXItdHNwYW4iIGZvbnQtc3R5bGU9Im5vcm1hbCI+IEFQSSk8L3RzcGFuPjwvdHNwYW4+PC90ZXh0PjwvZz48L2c+PC9nPjxnIHRyYW5zZm9ybT0idHJhbnNsYXRlKDkyLjQ1NTg4Njg0MDgyMDMxLCAxMTU1LjYyMzIxMjgxNDMzMSkiIGNsYXNzPSJlZGdlTGFiZWwiPjxnIHRyYW5zZm9ybT0idHJhbnNsYXRlKC04NC40NTU4ODY4NDA4MjAzMSwgLTExLjI1NzE0MzAyMDYyOTg4MykiIGNsYXNzPSJsYWJlbCI+PGc+PHJlY3QgaGVpZ2h0PSIyMi41MTQyODYwNDEyNTk3NjYiIHdpZHRoPSIxNjguOTExNzczNjgxNjQwNjIiIHk9Ii0xLjQyODU3MTY0MTQ0NTE2IiB4PSItMiIgc3R5bGU9IiIgY2xhc3M9ImJhY2tncm91bmQiPjwvcmVjdD48dGV4dCBzdHlsZT0iIiB5PSItMTAuMSI+PHRzcGFuIGR5PSIxLjFlbSIgeT0iLTAuMWVtIiB4PSIwIiBjbGFzcz0idGV4dC1vdXRlci10c3BhbiI+PHRzcGFuIGZvbnQtd2VpZ2h0PSJub3JtYWwiIGNsYXNzPSJ0ZXh0LWlubmVyLXRzcGFuIiBmb250LXN0eWxlPSJub3JtYWwiPlJlc3VtZTwvdHNwYW4+PHRzcGFuIGZvbnQtd2VpZ2h0PSJub3JtYWwiIGNsYXNzPSJ0ZXh0LWlubmVyLXRzcGFuIiBmb250LXN0eWxlPSJub3JtYWwiPiBUYXNrPC90c3Bhbj48dHNwYW4gZm9udC13ZWlnaHQ9Im5vcm1hbCIgY2xhc3M9InRleHQtaW5uZXItdHNwYW4iIGZvbnQtc3R5bGU9Im5vcm1hbCI+IEV4ZWN1dGlvbjwvdHNwYW4+PC90c3Bhbj48L3RleHQ+PC9nPjwvZz48L2c+PGcgdHJhbnNmb3JtPSJ0cmFuc2xhdGUoMTM1Ni41MTExOTIzMjE3NzczLCAxMDkwLjU2MDcxMjgxNDMzMSkiIGNsYXNzPSJlZGdlTGFiZWwiPjxnIHRyYW5zZm9ybT0idHJhbnNsYXRlKC03OS44NDUyMTQ4NDM3NSwgLTIwLjA1NzE0MjI1NzY5MDQzKSIgY2xhc3M9ImxhYmVsIj48Zz48cmVjdCBoZWlnaHQ9IjQwLjExNDI4NDUxNTM4MDg2IiB3aWR0aD0iMTU5LjY5MDQyOTY4NzUiIHk9Ii0xLjQyODU3MTY0MTQ0NTE2IiB4PSItMiIgc3R5bGU9IiIgY2xhc3M9ImJhY2tncm91bmQiPjwvcmVjdD48dGV4dCBzdHlsZT0iIiB5PSItMTAuMSI+PHRzcGFuIGR5PSIxLjFlbSIgeT0iLTAuMWVtIiB4PSIwIiBjbGFzcz0idGV4dC1vdXRlci10c3BhbiI+PHRzcGFuIGZvbnQtd2VpZ2h0PSJub3JtYWwiIGNsYXNzPSJ0ZXh0LWlubmVyLXRzcGFuIiBmb250LXN0eWxlPSJub3JtYWwiPlVwZGF0ZTwvdHNwYW4+PHRzcGFuIGZvbnQtd2VpZ2h0PSJub3JtYWwiIGNsYXNzPSJ0ZXh0LWlubmVyLXRzcGFuIiBmb250LXN0eWxlPSJub3JtYWwiPiBUYXNrPC90c3Bhbj48dHNwYW4gZm9udC13ZWlnaHQ9Im5vcm1hbCIgY2xhc3M9InRleHQtaW5uZXItdHNwYW4iIGZvbnQtc3R5bGU9Im5vcm1hbCI+IFN0YXR1czwvdHNwYW4+PHRzcGFuIGZvbnQtd2VpZ2h0PSJub3JtYWwiIGNsYXNzPSJ0ZXh0LWlubmVyLXRzcGFuIiBmb250LXN0eWxlPSJub3JtYWwiPiB0bzwvdHNwYW4+PC90c3Bhbj48dHNwYW4gZHk9IjEuMWVtIiB5PSIxZW0iIHg9IjAiIGNsYXNzPSJ0ZXh0LW91dGVyLXRzcGFuIj48dHNwYW4gZm9udC13ZWlnaHQ9Im5vcm1hbCIgY2xhc3M9InRleHQtaW5uZXItdHNwYW4iIGZvbnQtc3R5bGU9Im5vcm1hbCI+Q09NUExFVEVEPC90c3Bhbj48L3RzcGFuPjwvdGV4dD48L2c+PC9nPjwvZz48ZyB0cmFuc2Zvcm09InRyYW5zbGF0ZSgxMzU2LjUxMTE5MjMyMTc3NzMsIDEyMTEuODg1NzEzNTc3MjcwNSkiIGNsYXNzPSJlZGdlTGFiZWwiPjxnIHRyYW5zZm9ybT0idHJhbnNsYXRlKC04OC4yNTA0ODA2NTE4NTU0NywgLTExLjI1NzE0MzAyMDYyOTg4MykiIGNsYXNzPSJsYWJlbCI+PGc+PHJlY3QgaGVpZ2h0PSIyMi41MTQyODYwNDEyNTk3NjYiIHdpZHRoPSIxNzYuNTAwOTYxMzAzNzEwOTQiIHk9Ii0xLjQyODU3MTY0MTQ0NTE2IiB4PSItMiIgc3R5bGU9IiIgY2xhc3M9ImJhY2tncm91bmQiPjwvcmVjdD48dGV4dCBzdHlsZT0iIiB5PSItMTAuMSI+PHRzcGFuIGR5PSIxLjFlbSIgeT0iLTAuMWVtIiB4PSIwIiBjbGFzcz0idGV4dC1vdXRlci10c3BhbiI+PHRzcGFuIGZvbnQtd2VpZ2h0PSJub3JtYWwiIGNsYXNzPSJ0ZXh0LWlubmVyLXRzcGFuIiBmb250LXN0eWxlPSJub3JtYWwiPlBvc3QtVGFzazwvdHNwYW4+PHRzcGFuIGZvbnQtd2VpZ2h0PSJub3JtYWwiIGNsYXNzPSJ0ZXh0LWlubmVyLXRzcGFuIiBmb250LXN0eWxlPSJub3JtYWwiPiBCYXR0ZXJ5PC90c3Bhbj48dHNwYW4gZm9udC13ZWlnaHQ9Im5vcm1hbCIgY2xhc3M9InRleHQtaW5uZXItdHNwYW4iIGZvbnQtc3R5bGU9Im5vcm1hbCI+IENoZWNrPC90c3Bhbj48L3RzcGFuPjwvdGV4dD48L2c+PC9nPjwvZz48ZyB0cmFuc2Zvcm09InRyYW5zbGF0ZSgxMzIxLjI2NTQxMTM3Njk1MzEsIDEzNDIuMDEwNzEzNTc3MjcwNSkiIGNsYXNzPSJlZGdlTGFiZWwiPjxnIHRyYW5zZm9ybT0idHJhbnNsYXRlKC01OC42MjQ1OTU2NDIwODk4NDQsIC0xMS4yNTcxNDMwMjA2Mjk4ODMpIiBjbGFzcz0ibGFiZWwiPjxnPjxyZWN0IGhlaWdodD0iMjIuNTE0Mjg2MDQxMjU5NzY2IiB3aWR0aD0iMTE3LjI0OTE5MTI4NDE3OTY5IiB5PSItMS40Mjg1NzE2NDE0NDUxNiIgeD0iLTIiIHN0eWxlPSIiIGNsYXNzPSJiYWNrZ3JvdW5kIj48L3JlY3Q+PHRleHQgc3R5bGU9IiIgeT0iLTEwLjEiPjx0c3BhbiBkeT0iMS4xZW0iIHk9Ii0wLjFlbSIgeD0iMCIgY2xhc3M9InRleHQtb3V0ZXItdHNwYW4iPjx0c3BhbiBmb250LXdlaWdodD0ibm9ybWFsIiBjbGFzcz0idGV4dC1pbm5lci10c3BhbiIgZm9udC1zdHlsZT0ibm9ybWFsIj5JZjwvdHNwYW4+PHRzcGFuIGZvbnQtd2VpZ2h0PSJub3JtYWwiIGNsYXNzPSJ0ZXh0LWlubmVyLXRzcGFuIiBmb250LXN0eWxlPSJub3JtYWwiPiBCYXR0ZXJ5PC90c3Bhbj48dHNwYW4gZm9udC13ZWlnaHQ9Im5vcm1hbCIgY2xhc3M9InRleHQtaW5uZXItdHNwYW4iIGZvbnQtc3R5bGU9Im5vcm1hbCI+IOKJpDwvdHNwYW4+PHRzcGFuIGZvbnQtd2VpZ2h0PSJub3JtYWwiIGNsYXNzPSJ0ZXh0LWlubmVyLXRzcGFuIiBmb250LXN0eWxlPSJub3JtYWwiPiA1MCU8L3RzcGFuPjwvdHNwYW4+PC90ZXh0PjwvZz48L2c+PC9nPjxnIHRyYW5zZm9ybT0idHJhbnNsYXRlKDEyNDguMjYwNzExNjY5OTIxOSwgNjkxLjI4MjE0NDU0NjUwODgpIiBjbGFzcz0iZWRnZUxhYmVsIj48ZyB0cmFuc2Zvcm09InRyYW5zbGF0ZSgtNzAuMjA0MDYzNDE1NTI3MzQsIC0xMS4yNTcxNDMwMjA2Mjk4ODMpIiBjbGFzcz0ibGFiZWwiPjxnPjxyZWN0IGhlaWdodD0iMjIuNTE0Mjg2MDQxMjU5NzY2IiB3aWR0aD0iMTQwLjQwODEyNjgzMTA1NDciIHk9Ii0xLjQyODU3MTY0MTQ0NTE2IiB4PSItMiIgc3R5bGU9IiIgY2xhc3M9ImJhY2tncm91bmQiPjwvcmVjdD48dGV4dCBzdHlsZT0iIiB5PSItMTAuMSI+PHRzcGFuIGR5PSIxLjFlbSIgeT0iLTAuMWVtIiB4PSIwIiBjbGFzcz0idGV4dC1vdXRlci10c3BhbiI+PHRzcGFuIGZvbnQtd2VpZ2h0PSJub3JtYWwiIGNsYXNzPSJ0ZXh0LWlubmVyLXRzcGFuIiBmb250LXN0eWxlPSJub3JtYWwiPklmPC90c3Bhbj48dHNwYW4gZm9udC13ZWlnaHQ9Im5vcm1hbCIgY2xhc3M9InRleHQtaW5uZXItdHNwYW4iIGZvbnQtc3R5bGU9Im5vcm1hbCI+IEJhdHRlcnk8L3RzcGFuPjx0c3BhbiBmb250LXdlaWdodD0ibm9ybWFsIiBjbGFzcz0idGV4dC1pbm5lci10c3BhbiIgZm9udC1zdHlsZT0ibm9ybWFsIj4gJmFtcDtndDs8L3RzcGFuPjx0c3BhbiBmb250LXdlaWdodD0ibm9ybWFsIiBjbGFzcz0idGV4dC1pbm5lci10c3BhbiIgZm9udC1zdHlsZT0ibm9ybWFsIj4gNTAlPC90c3Bhbj48L3RzcGFuPjwvdGV4dD48L2c+PC9nPjwvZz48ZyB0cmFuc2Zvcm09InRyYW5zbGF0ZSgxMzIxLjI2NTQxMTM3Njk1MzEsIDE0ODAuOTM1NzEyODE0MzMxKSIgY2xhc3M9ImVkZ2VMYWJlbCI+PGcgdHJhbnNmb3JtPSJ0cmFuc2xhdGUoLTg4Ljk0MzM0NDExNjIxMDk0LCAtMTEuMjU3MTQzMDIwNjI5ODgzKSIgY2xhc3M9ImxhYmVsIj48Zz48cmVjdCBoZWlnaHQ9IjIyLjUxNDI4NjA0MTI1OTc2NiIgd2lkdGg9IjE3Ny44ODY2ODgyMzI0MjE4OCIgeT0iLTEuNDI4NTcxNjQxNDQ1MTYiIHg9Ii0zLjAyODU3MTQ4NjQ3MzA4MzUiIHN0eWxlPSIiIGNsYXNzPSJiYWNrZ3JvdW5kIj48L3JlY3Q+PHRleHQgc3R5bGU9IiIgeT0iLTEwLjEiPjx0c3BhbiBkeT0iMS4xZW0iIHk9Ii0wLjFlbSIgeD0iMCIgY2xhc3M9InRleHQtb3V0ZXItdHNwYW4iPjx0c3BhbiBmb250LXdlaWdodD0ibm9ybWFsIiBjbGFzcz0idGV4dC1pbm5lci10c3BhbiIgZm9udC1zdHlsZT0ibm9ybWFsIj5XYWl0PC90c3Bhbj48dHNwYW4gZm9udC13ZWlnaHQ9Im5vcm1hbCIgY2xhc3M9InRleHQtaW5uZXItdHNwYW4iIGZvbnQtc3R5bGU9Im5vcm1hbCI+IHVudGlsPC90c3Bhbj48dHNwYW4gZm9udC13ZWlnaHQ9Im5vcm1hbCIgY2xhc3M9InRleHQtaW5uZXItdHNwYW4iIGZvbnQtc3R5bGU9Im5vcm1hbCI+IEJhdHRlcnk8L3RzcGFuPjx0c3BhbiBmb250LXdlaWdodD0ibm9ybWFsIiBjbGFzcz0idGV4dC1pbm5lci10c3BhbiIgZm9udC1zdHlsZT0ibm9ybWFsIj4g4omlPC90c3Bhbj48dHNwYW4gZm9udC13ZWlnaHQ9Im5vcm1hbCIgY2xhc3M9InRleHQtaW5uZXItdHNwYW4iIGZvbnQtc3R5bGU9Im5vcm1hbCI+IDUwJTwvdHNwYW4+PC90c3Bhbj48L3RleHQ+PC9nPjwvZz48L2c+PGcgdHJhbnNmb3JtPSJ0cmFuc2xhdGUoMTEzOS4xMDE5NDAxNTUwMjkzLCA4MTIuNjA3MTQ1MzA5NDQ4MikiIGNsYXNzPSJlZGdlTGFiZWwiPjxnIHRyYW5zZm9ybT0idHJhbnNsYXRlKC04Ny44NjU3NTMxNzM4MjgxMiwgLTExLjI1NzE0MzAyMDYyOTg4MykiIGNsYXNzPSJsYWJlbCI+PGc+PHJlY3QgaGVpZ2h0PSIyMi41MTQyODYwNDEyNTk3NjYiIHdpZHRoPSIxNzUuNzMxNTA2MzQ3NjU2MjUiIHk9Ii0xLjQyODU3MTY0MTQ0NTE2IiB4PSItMiIgc3R5bGU9IiIgY2xhc3M9ImJhY2tncm91bmQiPjwvcmVjdD48dGV4dCBzdHlsZT0iIiB5PSItMTAuMSI+PHRzcGFuIGR5PSIxLjFlbSIgeT0iLTAuMWVtIiB4PSIwIiBjbGFzcz0idGV4dC1vdXRlci10c3BhbiI+PHRzcGFuIGZvbnQtd2VpZ2h0PSJub3JtYWwiIGNsYXNzPSJ0ZXh0LWlubmVyLXRzcGFuIiBmb250LXN0eWxlPSJub3JtYWwiPkVuZDwvdHNwYW4+PHRzcGFuIGZvbnQtd2VpZ2h0PSJub3JtYWwiIGNsYXNzPSJ0ZXh0LWlubmVyLXRzcGFuIiBmb250LXN0eWxlPSJub3JtYWwiPiBDaGFyZ2luZzwvdHNwYW4+PHRzcGFuIGZvbnQtd2VpZ2h0PSJub3JtYWwiIGNsYXNzPSJ0ZXh0LWlubmVyLXRzcGFuIiBmb250LXN0eWxlPSJub3JtYWwiPiBQcm9tb3Rpb248L3RzcGFuPjwvdHNwYW4+PC90ZXh0PjwvZz48L2c+PC9nPjxnIHRyYW5zZm9ybT0idHJhbnNsYXRlKDk1NS41MzgyOTU3NDU4NDk2LCAxMDkwLjU2MDcxMjgxNDMzMSkiIGNsYXNzPSJlZGdlTGFiZWwiPjxnIHRyYW5zZm9ybT0idHJhbnNsYXRlKC05MC45NTI4ODg0ODg3Njk1MywgLTIwLjA1NzE0MjI1NzY5MDQzKSIgY2xhc3M9ImxhYmVsIj48Zz48cmVjdCBoZWlnaHQ9IjQwLjExNDI4NDUxNTM4MDg2IiB3aWR0aD0iMTgxLjkwNTc2MTcxODc1IiB5PSItMS40Mjg1NzE2NDE0NDUxNiIgeD0iLTMuMDI4NTcxNDg2NDczMDgzNSIgc3R5bGU9IiIgY2xhc3M9ImJhY2tncm91bmQiPjwvcmVjdD48dGV4dCBzdHlsZT0iIiB5PSItMTAuMSI+PHRzcGFuIGR5PSIxLjFlbSIgeT0iLTAuMWVtIiB4PSIwIiBjbGFzcz0idGV4dC1vdXRlci10c3BhbiI+PHRzcGFuIGZvbnQtd2VpZ2h0PSJub3JtYWwiIGNsYXNzPSJ0ZXh0LWlubmVyLXRzcGFuIiBmb250LXN0eWxlPSJub3JtYWwiPkF0dGVtcHQ8L3RzcGFuPjx0c3BhbiBmb250LXdlaWdodD0ibm9ybWFsIiBjbGFzcz0idGV4dC1pbm5lci10c3BhbiIgZm9udC1zdHlsZT0ibm9ybWFsIj4gUmVjb3ZlcnlcbihDYWxsPC90c3Bhbj48L3RzcGFuPjx0c3BhbiBkeT0iMS4xZW0iIHk9IjFlbSIgeD0iMCIgY2xhc3M9InRleHQtb3V0ZXItdHNwYW4iPjx0c3BhbiBmb250LXdlaWdodD0ibm9ybWFsIiBjbGFzcz0idGV4dC1pbm5lci10c3BhbiIgZm9udC1zdHlsZT0ibm9ybWFsIj5vbmVLZXlSZXNldDwvdHNwYW4+PHRzcGFuIGZvbnQtd2VpZ2h0PSJub3JtYWwiIGNsYXNzPSJ0ZXh0LWlubmVyLXRzcGFuIiBmb250LXN0eWxlPSJub3JtYWwiPiBBUEkpPC90c3Bhbj48L3RzcGFuPjwvdGV4dD48L2c+PC9nPjwvZz48ZyB0cmFuc2Zvcm09InRyYW5zbGF0ZSg3NTEuNjAxMzM3NDMyODYxMywgOTUxLjYzNTcxMzU3NzI3MDUpIiBjbGFzcz0iZWRnZUxhYmVsIj48ZyB0cmFuc2Zvcm09InRyYW5zbGF0ZSgtODEuMTUwMjUzMjk1ODk4NDQsIC0xMS4yNTcxNDMwMjA2Mjk4ODMpIiBjbGFzcz0ibGFiZWwiPjxnPjxyZWN0IGhlaWdodD0iMjIuNTE0Mjg2MDQxMjU5NzY2IiB3aWR0aD0iMTYyLjMwMDUwNjU5MTc5Njg4IiB5PSItMS40Mjg1NzE2NDE0NDUxNiIgeD0iLTIiIHN0eWxlPSIiIGNsYXNzPSJiYWNrZ3JvdW5kIj48L3JlY3Q+PHRleHQgc3R5bGU9IiIgeT0iLTEwLjEiPjx0c3BhbiBkeT0iMS4xZW0iIHk9Ii0wLjFlbSIgeD0iMCIgY2xhc3M9InRleHQtb3V0ZXItdHNwYW4iPjx0c3BhbiBmb250LXdlaWdodD0ibm9ybWFsIiBjbGFzcz0idGV4dC1pbm5lci10c3BhbiIgZm9udC1zdHlsZT0ibm9ybWFsIj5JZjwvdHNwYW4+PHRzcGFuIGZvbnQtd2VpZ2h0PSJub3JtYWwiIGNsYXNzPSJ0ZXh0LWlubmVyLXRzcGFuIiBmb250LXN0eWxlPSJub3JtYWwiPiBSZWNvdmVyeTwvdHNwYW4+PHRzcGFuIGZvbnQtd2VpZ2h0PSJub3JtYWwiIGNsYXNzPSJ0ZXh0LWlubmVyLXRzcGFuIiBmb250LXN0eWxlPSJub3JtYWwiPiBTdWNjZXNzZnVsPC90c3Bhbj48L3RzcGFuPjwvdGV4dD48L2c+PC9nPjwvZz48ZyB0cmFuc2Zvcm09InRyYW5zbGF0ZSg2MjMuMTU4NjYwODg4NjcxOSwgNjM1LjAxOTY0Mzc4MzU2OTMpIiBjbGFzcz0iZWRnZUxhYmVsIj48ZyB0cmFuc2Zvcm09InRyYW5zbGF0ZSgtNjAuOTIwODA2ODg0NzY1NjI1LCAtMTEuMjU3MTQzMDIwNjI5ODgzKSIgY2xhc3M9ImxhYmVsIj48Zz48cmVjdCBoZWlnaHQ9IjIyLjUxNDI4NjA0MTI1OTc2NiIgd2lkdGg9IjEyMS44NDE2MTM3Njk1MzEyNSIgeT0iLTEuNDI4NTcxNjQxNDQ1MTYiIHg9Ii0yIiBzdHlsZT0iIiBjbGFzcz0iYmFja2dyb3VuZCI+PC9yZWN0Pjx0ZXh0IHN0eWxlPSIiIHk9Ii0xMC4xIj48dHNwYW4gZHk9IjEuMWVtIiB5PSItMC4xZW0iIHg9IjAiIGNsYXNzPSJ0ZXh0LW91dGVyLXRzcGFuIj48dHNwYW4gZm9udC13ZWlnaHQ9Im5vcm1hbCIgY2xhc3M9InRleHQtaW5uZXItdHNwYW4iIGZvbnQtc3R5bGU9Im5vcm1hbCI+SWY8L3RzcGFuPjx0c3BhbiBmb250LXdlaWdodD0ibm9ybWFsIiBjbGFzcz0idGV4dC1pbm5lci10c3BhbiIgZm9udC1zdHlsZT0ibm9ybWFsIj4gUmVjb3Zlcnk8L3RzcGFuPjx0c3BhbiBmb250LXdlaWdodD0ibm9ybWFsIiBjbGFzcz0idGV4dC1pbm5lci10c3BhbiIgZm9udC1zdHlsZT0ibm9ybWFsIj4gRmFpbHM8L3RzcGFuPjwvdHNwYW4+PC90ZXh0PjwvZz48L2c+PC9nPjwvZz48ZyBjbGFzcz0ibm9kZXMiPjxnIHRyYW5zZm9ybT0idHJhbnNsYXRlKDk3NS41Mzk1NjAzMTc5OTMyLCAxNSkiIGlkPSJzdGF0ZS1yb290X3N0YXJ0LTAiIGNsYXNzPSJub2RlIGRlZmF1bHQiPjxjaXJjbGUgaGVpZ2h0PSIxNCIgd2lkdGg9IjE0IiByPSI3IiBjbGFzcz0ic3RhdGUtc3RhcnQiPjwvY2lyY2xlPjwvZz48ZyB0cmFuc2Zvcm09InRyYW5zbGF0ZSg5NzUuNTM5NTYwMzE3OTkzMiwgMTE0LjUxOTY0Mzc4MzU2OTM0KSIgaWQ9InN0YXRlLUlETEUtMjUiIGNsYXNzPSJub2RlICBzdGF0ZWRpYWdyYW0tc3RhdGUiPjxyZWN0IGhlaWdodD0iNDAuMDEwNzE1NDg0NjE5MTQiIHdpZHRoPSI0Ni45Mzc1MDM4MTQ2OTcyNjYiIHk9Ii0yMC4wMDUzNTc3NDIzMDk1NyIgeD0iLTIzLjQ2ODc1MTkwNzM0ODYzMyIgcnk9IjUiIHJ4PSI1IiBzdHlsZT0iIiBjbGFzcz0iYmFzaWMgbGFiZWwtY29udGFpbmVyIj48L3JlY3Q+PGcgdHJhbnNmb3JtPSJ0cmFuc2xhdGUoLTE1LjQ2ODc1MTkwNzM0ODYzMywgLTEyLjAwNTM1Nzc0MjMwOTU3KSIgc3R5bGU9IiIgY2xhc3M9ImxhYmVsIj48cmVjdD48L3JlY3Q+PGZvcmVpZ25PYmplY3QgaGVpZ2h0PSIyNC4wMTA3MTU0ODQ2MTkxNCIgd2lkdGg9IjMwLjkzNzUwMzgxNDY5NzI2NiI+PGRpdiBzdHlsZT0iZGlzcGxheTogdGFibGUtY2VsbDsgd2hpdGUtc3BhY2U6IG5vd3JhcDsgbGluZS1oZWlnaHQ6IDEuNTsgbWF4LXdpZHRoOiAyMDBweDsgdGV4dC1hbGlnbjogY2VudGVyOyIgeG1sbnM9Imh0dHA6Ly93d3cudzMub3JnLzE5OTkveGh0bWwiPjxzcGFuIGNsYXNzPSJub2RlTGFiZWwiPjxwPklETEU8L3A+PC9zcGFuPjwvZGl2PjwvZm9yZWlnbk9iamVjdD48L2c+PC9nPjxnIHRyYW5zZm9ybT0idHJhbnNsYXRlKDgxNS43NDIwMjE1NjA2NjksIDIyNy4wNDQ2NDUzMDk0NDgyNCkiIGlkPSJzdGF0ZS1UQVNLX0RFVEVDVEVELTIiIGNsYXNzPSJub2RlICBzdGF0ZWRpYWdyYW0tc3RhdGUiPjxyZWN0IGhlaWdodD0iNDAuMDEwNzE1NDg0NjE5MTQiIHdpZHRoPSIxMzEuOTIzMjE3NzczNDM3NSIgeT0iLTIwLjAwNTM1Nzc0MjMwOTU3IiB4PSItNjUuOTYxNjA4ODg2NzE4NzUiIHJ5PSI1IiByeD0iNSIgc3R5bGU9IiIgY2xhc3M9ImJhc2ljIGxhYmVsLWNvbnRhaW5lciI+PC9yZWN0PjxnIHRyYW5zZm9ybT0idHJhbnNsYXRlKC01Ny45NjE2MDg4ODY3MTg3NSwgLTEyLjAwNTM1Nzc0MjMwOTU3KSIgc3R5bGU9IiIgY2xhc3M9ImxhYmVsIj48cmVjdD48L3JlY3Q+PGZvcmVpZ25PYmplY3QgaGVpZ2h0PSIyNC4wMTA3MTU0ODQ2MTkxNCIgd2lkdGg9IjExNS45MjMyMTc3NzM0Mzc1Ij48ZGl2IHN0eWxlPSJkaXNwbGF5OiB0YWJsZS1jZWxsOyB3aGl0ZS1zcGFjZTogbm93cmFwOyBsaW5lLWhlaWdodDogMS41OyBtYXgtd2lkdGg6IDIwMHB4OyB0ZXh0LWFsaWduOiBjZW50ZXI7IiB4bWxucz0iaHR0cDovL3d3dy53My5vcmcvMTk5OS94aHRtbCI+PHNwYW4gY2xhc3M9Im5vZGVMYWJlbCI+PHA+VEFTS19ERVRFQ1RFRDwvcD48L3NwYW4+PC9kaXY+PC9mb3JlaWduT2JqZWN0PjwvZz48L2c+PGcgdHJhbnNmb3JtPSJ0cmFuc2xhdGUoODE1Ljc0MjAyMTU2MDY2OSwgMzc0Ljc2OTY0Mzc4MzU2OTM0KSIgaWQ9InN0YXRlLUlOSVRfVEFTSy0zIiBjbGFzcz0ibm9kZSAgc3RhdGVkaWFncmFtLXN0YXRlIj48cmVjdCBoZWlnaHQ9IjQwLjAxMDcxNTQ4NDYxOTE0IiB3aWR0aD0iODYuODU4OTMyNDk1MTE3MTkiIHk9Ii0yMC4wMDUzNTc3NDIzMDk1NyIgeD0iLTQzLjQyOTQ2NjI0NzU1ODU5NCIgcnk9IjUiIHJ4PSI1IiBzdHlsZT0iIiBjbGFzcz0iYmFzaWMgbGFiZWwtY29udGFpbmVyIj48L3JlY3Q+PGcgdHJhbnNmb3JtPSJ0cmFuc2xhdGUoLTM1LjQyOTQ2NjI0NzU1ODU5NCwgLTEyLjAwNTM1Nzc0MjMwOTU3KSIgc3R5bGU9IiIgY2xhc3M9ImxhYmVsIj48cmVjdD48L3JlY3Q+PGZvcmVpZ25PYmplY3QgaGVpZ2h0PSIyNC4wMTA3MTU0ODQ2MTkxNCIgd2lkdGg9IjcwLjg1ODkzMjQ5NTExNzE5Ij48ZGl2IHN0eWxlPSJkaXNwbGF5OiB0YWJsZS1jZWxsOyB3aGl0ZS1zcGFjZTogbm93cmFwOyBsaW5lLWhlaWdodDogMS41OyBtYXgtd2lkdGg6IDIwMHB4OyB0ZXh0LWFsaWduOiBjZW50ZXI7IiB4bWxucz0iaHR0cDovL3d3dy53My5vcmcvMTk5OS94aHRtbCI+PHNwYW4gY2xhc3M9Im5vZGVMYWJlbCI+PHA+SU5JVF9UQVNLPC9wPjwvc3Bhbj48L2Rpdj48L2ZvcmVpZ25PYmplY3Q+PC9nPjwvZz48ZyB0cmFuc2Zvcm09InRyYW5zbGF0ZSg4MTUuNzQyMDIxNTYwNjY5LCA1MDQuODk0NjQzNzgzNTY5MzQpIiBpZD0ic3RhdGUtQVBJX0NBTEwtNCIgY2xhc3M9Im5vZGUgIHN0YXRlZGlhZ3JhbS1zdGF0ZSI+PHJlY3QgaGVpZ2h0PSI0MC4wMTA3MTU0ODQ2MTkxNCIgd2lkdGg9IjgyLjM5MTA3NTEzNDI3NzM0IiB5PSItMjAuMDA1MzU3NzQyMzA5NTciIHg9Ii00MS4xOTU1Mzc1NjcxMzg2NyIgcnk9IjUiIHJ4PSI1IiBzdHlsZT0iIiBjbGFzcz0iYmFzaWMgbGFiZWwtY29udGFpbmVyIj48L3JlY3Q+PGcgdHJhbnNmb3JtPSJ0cmFuc2xhdGUoLTMzLjE5NTUzNzU2NzEzODY3LCAtMTIuMDA1MzU3NzQyMzA5NTcpIiBzdHlsZT0iIiBjbGFzcz0ibGFiZWwiPjxyZWN0PjwvcmVjdD48Zm9yZWlnbk9iamVjdCBoZWlnaHQ9IjI0LjAxMDcxNTQ4NDYxOTE0IiB3aWR0aD0iNjYuMzkxMDc1MTM0Mjc3MzQiPjxkaXYgc3R5bGU9ImRpc3BsYXk6IHRhYmxlLWNlbGw7IHdoaXRlLXNwYWNlOiBub3dyYXA7IGxpbmUtaGVpZ2h0OiAxLjU7IG1heC13aWR0aDogMjAwcHg7IHRleHQtYWxpZ246IGNlbnRlcjsiIHhtbG5zPSJodHRwOi8vd3d3LnczLm9yZy8xOTk5L3hodG1sIj48c3BhbiBjbGFzcz0ibm9kZUxhYmVsIj48cD5BUElfQ0FMTDwvcD48L3NwYW4+PC9kaXY+PC9mb3JlaWduT2JqZWN0PjwvZz48L2c+PGcgdHJhbnNmb3JtPSJ0cmFuc2xhdGUoODE1Ljc0MjAyMTU2MDY2OSwgNjM1LjAxOTY0Mzc4MzU2OTMpIiBpZD0ic3RhdGUtVEFTS19TVEFSVEVELTUiIGNsYXNzPSJub2RlICBzdGF0ZWRpYWdyYW0tc3RhdGUiPjxyZWN0IGhlaWdodD0iNDAuMDEwNzE1NDg0NjE5MTQiIHdpZHRoPSIxMTkuNjI4NTg1ODE1NDI5NjkiIHk9Ii0yMC4wMDUzNTc3NDIzMDk1NyIgeD0iLTU5LjgxNDI5MjkwNzcxNDg0NCIgcnk9IjUiIHJ4PSI1IiBzdHlsZT0iIiBjbGFzcz0iYmFzaWMgbGFiZWwtY29udGFpbmVyIj48L3JlY3Q+PGcgdHJhbnNmb3JtPSJ0cmFuc2xhdGUoLTUxLjgxNDI5MjkwNzcxNDg0NCwgLTEyLjAwNTM1Nzc0MjMwOTU3KSIgc3R5bGU9IiIgY2xhc3M9ImxhYmVsIj48cmVjdD48L3JlY3Q+PGZvcmVpZ25PYmplY3QgaGVpZ2h0PSIyNC4wMTA3MTU0ODQ2MTkxNCIgd2lkdGg9IjEwMy42Mjg1ODU4MTU0Mjk2OSI+PGRpdiBzdHlsZT0iZGlzcGxheTogdGFibGUtY2VsbDsgd2hpdGUtc3BhY2U6IG5vd3JhcDsgbGluZS1oZWlnaHQ6IDEuNTsgbWF4LXdpZHRoOiAyMDBweDsgdGV4dC1hbGlnbjogY2VudGVyOyIgeG1sbnM9Imh0dHA6Ly93d3cudzMub3JnLzE5OTkveGh0bWwiPjxzcGFuIGNsYXNzPSJub2RlTGFiZWwiPjxwPlRBU0tfU1RBUlRFRDwvcD48L3NwYW4+PC9kaXY+PC9mb3JlaWduT2JqZWN0PjwvZz48L2c+PGcgdHJhbnNmb3JtPSJ0cmFuc2xhdGUoODE1Ljc0MjAyMTU2MDY2OSwgNzQ3LjU0NDY0NTMwOTQ0ODIpIiBpZD0ic3RhdGUtUlVOTklORy0yNCIgY2xhc3M9Im5vZGUgIHN0YXRlZGlhZ3JhbS1zdGF0ZSI+PHJlY3QgaGVpZ2h0PSI0MC4wMTA3MTU0ODQ2MTkxNCIgd2lkdGg9IjgxLjU3MTQzNDAyMDk5NjEiIHk9Ii0yMC4wMDUzNTc3NDIzMDk1NyIgeD0iLTQwLjc4NTcxNzAxMDQ5ODA1IiByeT0iNSIgcng9IjUiIHN0eWxlPSIiIGNsYXNzPSJiYXNpYyBsYWJlbC1jb250YWluZXIiPjwvcmVjdD48ZyB0cmFuc2Zvcm09InRyYW5zbGF0ZSgtMzIuNzg1NzE3MDEwNDk4MDUsIC0xMi4wMDUzNTc3NDIzMDk1NykiIHN0eWxlPSIiIGNsYXNzPSJsYWJlbCI+PHJlY3Q+PC9yZWN0Pjxmb3JlaWduT2JqZWN0IGhlaWdodD0iMjQuMDEwNzE1NDg0NjE5MTQiIHdpZHRoPSI2NS41NzE0MzQwMjA5OTYxIj48ZGl2IHN0eWxlPSJkaXNwbGF5OiB0YWJsZS1jZWxsOyB3aGl0ZS1zcGFjZTogbm93cmFwOyBsaW5lLWhlaWdodDogMS41OyBtYXgtd2lkdGg6IDIwMHB4OyB0ZXh0LWFsaWduOiBjZW50ZXI7IiB4bWxucz0iaHR0cDovL3d3dy53My5vcmcvMTk5OS94aHRtbCI+PHNwYW4gY2xhc3M9Im5vZGVMYWJlbCI+PHA+UlVOTklORzwvcD48L3NwYW4+PC9kaXY+PC9mb3JlaWduT2JqZWN0PjwvZz48L2c+PGcgdHJhbnNmb3JtPSJ0cmFuc2xhdGUoOTU1LjUzODI5NTc0NTg0OTYsIDg3Ny43MjE0Mjk4MjQ4MjkxKSIgaWQ9InN0YXRlLUNBTExCQUNLX0NIRUNLLTEwIiBjbGFzcz0ibm9kZSAgc3RhdGVkaWFncmFtLXN0YXRlIj48cmVjdCBoZWlnaHQ9IjQwLjAxMDcxNTQ4NDYxOTE0IiB3aWR0aD0iMTQ0LjIzMzkzMjQ5NTExNzIiIHk9Ii0yMC4wMDUzNTc3NDIzMDk1NyIgeD0iLTcyLjExNjk2NjI0NzU1ODYiIHJ5PSI1IiByeD0iNSIgc3R5bGU9IiIgY2xhc3M9ImJhc2ljIGxhYmVsLWNvbnRhaW5lciI+PC9yZWN0PjxnIHRyYW5zZm9ybT0idHJhbnNsYXRlKC02NC4xMTY5NjYyNDc1NTg2LCAtMTIuMDA1MzU3NzQyMzA5NTcpIiBzdHlsZT0iIiBjbGFzcz0ibGFiZWwiPjxyZWN0PjwvcmVjdD48Zm9yZWlnbk9iamVjdCBoZWlnaHQ9IjI0LjAxMDcxNTQ4NDYxOTE0IiB3aWR0aD0iMTI4LjIzMzkzMjQ5NTExNzIiPjxkaXYgc3R5bGU9ImRpc3BsYXk6IHRhYmxlLWNlbGw7IHdoaXRlLXNwYWNlOiBub3dyYXA7IGxpbmUtaGVpZ2h0OiAxLjU7IG1heC13aWR0aDogMjAwcHg7IHRleHQtYWxpZ246IGNlbnRlcjsiIHhtbG5zPSJodHRwOi8vd3d3LnczLm9yZy8xOTk5L3hodG1sIj48c3BhbiBjbGFzcz0ibm9kZUxhYmVsIj48cD5DQUxMQkFDS19DSEVDSzwvcD48L3NwYW4+PC9kaXY+PC9mb3JlaWduT2JqZWN0PjwvZz48L2c+PGcgdHJhbnNmb3JtPSJ0cmFuc2xhdGUoMTM1Ni41MTExOTIzMjE3NzczLCAxMDI1LjQ5ODIxMjgxNDMzMSkiIGlkPSJzdGF0ZS1UQVNLX0NPTVBMRVRFRC0xNyIgY2xhc3M9Im5vZGUgIHN0YXRlZGlhZ3JhbS1zdGF0ZSI+PHJlY3QgaGVpZ2h0PSI0MC4wMTA3MTU0ODQ2MTkxNCIgd2lkdGg9IjE0My4zOTgyMzE1MDYzNDc2NiIgeT0iLTIwLjAwNTM1Nzc0MjMwOTU3IiB4PSItNzEuNjk5MTE1NzUzMTczODMiIHJ5PSI1IiByeD0iNSIgc3R5bGU9IiIgY2xhc3M9ImJhc2ljIGxhYmVsLWNvbnRhaW5lciI+PC9yZWN0PjxnIHRyYW5zZm9ybT0idHJhbnNsYXRlKC02My42OTkxMTU3NTMxNzM4MywgLTEyLjAwNTM1Nzc0MjMwOTU3KSIgc3R5bGU9IiIgY2xhc3M9ImxhYmVsIj48cmVjdD48L3JlY3Q+PGZvcmVpZ25PYmplY3QgaGVpZ2h0PSIyNC4wMTA3MTU0ODQ2MTkxNCIgd2lkdGg9IjEyNy4zOTgyMzE1MDYzNDc2NiI+PGRpdiBzdHlsZT0iZGlzcGxheTogdGFibGUtY2VsbDsgd2hpdGUtc3BhY2U6IG5vd3JhcDsgbGluZS1oZWlnaHQ6IDEuNTsgbWF4LXdpZHRoOiAyMDBweDsgdGV4dC1hbGlnbjogY2VudGVyOyIgeG1sbnM9Imh0dHA6Ly93d3cudzMub3JnLzE5OTkveGh0bWwiPjxzcGFuIGNsYXNzPSJub2RlTGFiZWwiPjxwPlRBU0tfQ09NUExFVEVEPC9wPjwvc3Bhbj48L2Rpdj48L2ZvcmVpZ25PYmplY3Q+PC9nPjwvZz48ZyB0cmFuc2Zvcm09InRyYW5zbGF0ZSgyMjguNzEwNTQwNzcxNDg0MzgsIDEwMjUuNDk4MjEyODE0MzMxKSIgaWQ9InN0YXRlLUNPTlRJTlVFX1JVTk5JTkctMTEiIGNsYXNzPSJub2RlICBzdGF0ZWRpYWdyYW0tc3RhdGUiPjxyZWN0IGhlaWdodD0iNDAuMDEwNzE1NDg0NjE5MTQiIHdpZHRoPSIxNjMuNDA3MTUwMjY4NTU0NyIgeT0iLTIwLjAwNTM1Nzc0MjMwOTU3IiB4PSItODEuNzAzNTc1MTM0Mjc3MzQiIHJ5PSI1IiByeD0iNSIgc3R5bGU9IiIgY2xhc3M9ImJhc2ljIGxhYmVsLWNvbnRhaW5lciI+PC9yZWN0PjxnIHRyYW5zZm9ybT0idHJhbnNsYXRlKC03My43MDM1NzUxMzQyNzczNCwgLTEyLjAwNTM1Nzc0MjMwOTU3KSIgc3R5bGU9IiIgY2xhc3M9ImxhYmVsIj48cmVjdD48L3JlY3Q+PGZvcmVpZ25PYmplY3QgaGVpZ2h0PSIyNC4wMTA3MTU0ODQ2MTkxNCIgd2lkdGg9IjE0Ny40MDcxNTAyNjg1NTQ3Ij48ZGl2IHN0eWxlPSJkaXNwbGF5OiB0YWJsZS1jZWxsOyB3aGl0ZS1zcGFjZTogbm93cmFwOyBsaW5lLWhlaWdodDogMS41OyBtYXgtd2lkdGg6IDIwMHB4OyB0ZXh0LWFsaWduOiBjZW50ZXI7IiB4bWxucz0iaHR0cDovL3d3dy53My5vcmcvMTk5OS94aHRtbCI+PHNwYW4gY2xhc3M9Im5vZGVMYWJlbCI+PHA+Q09OVElOVUVfUlVOTklORzwvcD48L3NwYW4+PC9kaXY+PC9mb3JlaWduT2JqZWN0PjwvZz48L2c+PGcgdHJhbnNmb3JtPSJ0cmFuc2xhdGUoOTU1LjUzODI5NTc0NTg0OTYsIDEwMjUuNDk4MjEyODE0MzMxKSIgaWQ9InN0YXRlLVJFQ09WRVJZLTIzIiBjbGFzcz0ibm9kZSAgc3RhdGVkaWFncmFtLXN0YXRlIj48cmVjdCBoZWlnaHQ9IjQwLjAxMDcxNTQ4NDYxOTE0IiB3aWR0aD0iODkuNTkxMDcyMDgyNTE5NTMiIHk9Ii0yMC4wMDUzNTc3NDIzMDk1NyIgeD0iLTQ0Ljc5NTUzNjA0MTI1OTc2NiIgcnk9IjUiIHJ4PSI1IiBzdHlsZT0iIiBjbGFzcz0iYmFzaWMgbGFiZWwtY29udGFpbmVyIj48L3JlY3Q+PGcgdHJhbnNmb3JtPSJ0cmFuc2xhdGUoLTM2Ljc5NTUzNjA0MTI1OTc2NiwgLTEyLjAwNTM1Nzc0MjMwOTU3KSIgc3R5bGU9IiIgY2xhc3M9ImxhYmVsIj48cmVjdD48L3JlY3Q+PGZvcmVpZ25PYmplY3QgaGVpZ2h0PSIyNC4wMTA3MTU0ODQ2MTkxNCIgd2lkdGg9IjczLjU5MTA3MjA4MjUxOTUzIj48ZGl2IHN0eWxlPSJkaXNwbGF5OiB0YWJsZS1jZWxsOyB3aGl0ZS1zcGFjZTogbm93cmFwOyBsaW5lLWhlaWdodDogMS41OyBtYXgtd2lkdGg6IDIwMHB4OyB0ZXh0LWFsaWduOiBjZW50ZXI7IiB4bWxucz0iaHR0cDovL3d3dy53My5vcmcvMTk5OS94aHRtbCI+PHNwYW4gY2xhc3M9Im5vZGVMYWJlbCI+PHA+UkVDT1ZFUlk8L3A+PC9zcGFuPjwvZGl2PjwvZm9yZWlnbk9iamVjdD48L2c+PC9nPjxnIHRyYW5zZm9ybT0idHJhbnNsYXRlKDUwMC4zOTc4ODgxODM1OTM3NSwgMTAyNS40OTgyMTI4MTQzMzEpIiBpZD0ic3RhdGUtTE9XX0JBVFRFUlktMTIiIGNsYXNzPSJub2RlICBzdGF0ZWRpYWdyYW0tc3RhdGUiPjxyZWN0IGhlaWdodD0iNDAuMDEwNzE1NDg0NjE5MTQiIHdpZHRoPSIxMTguMzc1MDE1MjU4Nzg5MDYiIHk9Ii0yMC4wMDUzNTc3NDIzMDk1NyIgeD0iLTU5LjE4NzUwNzYyOTM5NDUzIiByeT0iNSIgcng9IjUiIHN0eWxlPSIiIGNsYXNzPSJiYXNpYyBsYWJlbC1jb250YWluZXIiPjwvcmVjdD48ZyB0cmFuc2Zvcm09InRyYW5zbGF0ZSgtNTEuMTg3NTA3NjI5Mzk0NTMsIC0xMi4wMDUzNTc3NDIzMDk1NykiIHN0eWxlPSIiIGNsYXNzPSJsYWJlbCI+PHJlY3Q+PC9yZWN0Pjxmb3JlaWduT2JqZWN0IGhlaWdodD0iMjQuMDEwNzE1NDg0NjE5MTQiIHdpZHRoPSIxMDIuMzc1MDE1MjU4Nzg5MDYiPjxkaXYgc3R5bGU9ImRpc3BsYXk6IHRhYmxlLWNlbGw7IHdoaXRlLXNwYWNlOiBub3dyYXA7IGxpbmUtaGVpZ2h0OiAxLjU7IG1heC13aWR0aDogMjAwcHg7IHRleHQtYWxpZ246IGNlbnRlcjsiIHhtbG5zPSJodHRwOi8vd3d3LnczLm9yZy8xOTk5L3hodG1sIj48c3BhbiBjbGFzcz0ibm9kZUxhYmVsIj48cD5MT1dfQkFUVEVSWTwvcD48L3NwYW4+PC9kaXY+PC9mb3JlaWduT2JqZWN0PjwvZz48L2c+PGcgdHJhbnNmb3JtPSJ0cmFuc2xhdGUoNTAwLjM5Nzg4ODE4MzU5Mzc1LCAxMTU1LjYyMzIxMjgxNDMzMSkiIGlkPSJzdGF0ZS1QQVVTRV9UQVNLLTEzIiBjbGFzcz0ibm9kZSAgc3RhdGVkaWFncmFtLXN0YXRlIj48cmVjdCBoZWlnaHQ9IjQwLjAxMDcxNTQ4NDYxOTE0IiB3aWR0aD0iMTAxLjY2MDcyODQ1NDU4OTg0IiB5PSItMjAuMDA1MzU3NzQyMzA5NTciIHg9Ii01MC44MzAzNjQyMjcyOTQ5MiIgcnk9IjUiIHJ4PSI1IiBzdHlsZT0iIiBjbGFzcz0iYmFzaWMgbGFiZWwtY29udGFpbmVyIj48L3JlY3Q+PGcgdHJhbnNmb3JtPSJ0cmFuc2xhdGUoLTQyLjgzMDM2NDIyNzI5NDkyLCAtMTIuMDA1MzU3NzQyMzA5NTcpIiBzdHlsZT0iIiBjbGFzcz0ibGFiZWwiPjxyZWN0PjwvcmVjdD48Zm9yZWlnbk9iamVjdCBoZWlnaHQ9IjI0LjAxMDcxNTQ4NDYxOTE0IiB3aWR0aD0iODUuNjYwNzI4NDU0NTg5ODQiPjxkaXYgc3R5bGU9ImRpc3BsYXk6IHRhYmxlLWNlbGw7IHdoaXRlLXNwYWNlOiBub3dyYXA7IGxpbmUtaGVpZ2h0OiAxLjU7IG1heC13aWR0aDogMjAwcHg7IHRleHQtYWxpZ246IGNlbnRlcjsiIHhtbG5zPSJodHRwOi8vd3d3LnczLm9yZy8xOTk5L3hodG1sIj48c3BhbiBjbGFzcz0ibm9kZUxhYmVsIj48cD5QQVVTRV9UQVNLPC9wPjwvc3Bhbj48L2Rpdj48L2ZvcmVpZ25PYmplY3Q+PC9nPjwvZz48ZyB0cmFuc2Zvcm09InRyYW5zbGF0ZSg1MDAuMzk3ODg4MTgzNTkzNzUsIDEyNjguMTQ4MjE0MzQwMjEpIiBpZD0ic3RhdGUtQ0hBUkdJTkctMTQiIGNsYXNzPSJub2RlICBzdGF0ZWRpYWdyYW0tc3RhdGUiPjxyZWN0IGhlaWdodD0iNDAuMDEwNzE1NDg0NjE5MTQiIHdpZHRoPSI5MS4wNjk2NTYzNzIwNzAzMSIgeT0iLTIwLjAwNTM1Nzc0MjMwOTU3IiB4PSItNDUuNTM0ODI4MTg2MDM1MTU2IiByeT0iNSIgcng9IjUiIHN0eWxlPSIiIGNsYXNzPSJiYXNpYyBsYWJlbC1jb250YWluZXIiPjwvcmVjdD48ZyB0cmFuc2Zvcm09InRyYW5zbGF0ZSgtMzcuNTM0ODI4MTg2MDM1MTU2LCAtMTIuMDA1MzU3NzQyMzA5NTcpIiBzdHlsZT0iIiBjbGFzcz0ibGFiZWwiPjxyZWN0PjwvcmVjdD48Zm9yZWlnbk9iamVjdCBoZWlnaHQ9IjI0LjAxMDcxNTQ4NDYxOTE0IiB3aWR0aD0iNzUuMDY5NjU2MzcyMDcwMzEiPjxkaXYgc3R5bGU9ImRpc3BsYXk6IHRhYmxlLWNlbGw7IHdoaXRlLXNwYWNlOiBub3dyYXA7IGxpbmUtaGVpZ2h0OiAxLjU7IG1heC13aWR0aDogMjAwcHg7IHRleHQtYWxpZ246IGNlbnRlcjsiIHhtbG5zPSJodHRwOi8vd3d3LnczLm9yZy8xOTk5L3hodG1sIj48c3BhbiBjbGFzcz0ibm9kZUxhYmVsIj48cD5DSEFSR0lORzwvcD48L3NwYW4+PC9kaXY+PC9mb3JlaWduT2JqZWN0PjwvZz48L2c+PGcgdHJhbnNmb3JtPSJ0cmFuc2xhdGUoNTAwLjM5Nzg4ODE4MzU5Mzc1LCAxNDE1Ljg3MzIxMjgxNDMzMSkiIGlkPSJzdGF0ZS1XQUlUX0NIQVJHRS0xNSIgY2xhc3M9Im5vZGUgIHN0YXRlZGlhZ3JhbS1zdGF0ZSI+PHJlY3QgaGVpZ2h0PSI0MC4wMTA3MTU0ODQ2MTkxNCIgd2lkdGg9IjExNy45NDEwODU4MTU0Mjk2OSIgeT0iLTIwLjAwNTM1Nzc0MjMwOTU3IiB4PSItNTguOTcwNTQyOTA3NzE0ODQ0IiByeT0iNSIgcng9IjUiIHN0eWxlPSIiIGNsYXNzPSJiYXNpYyBsYWJlbC1jb250YWluZXIiPjwvcmVjdD48ZyB0cmFuc2Zvcm09InRyYW5zbGF0ZSgtNTAuOTcwNTQyOTA3NzE0ODQ0LCAtMTIuMDA1MzU3NzQyMzA5NTcpIiBzdHlsZT0iIiBjbGFzcz0ibGFiZWwiPjxyZWN0PjwvcmVjdD48Zm9yZWlnbk9iamVjdCBoZWlnaHQ9IjI0LjAxMDcxNTQ4NDYxOTE0IiB3aWR0aD0iMTAxLjk0MTA4NTgxNTQyOTY5Ij48ZGl2IHN0eWxlPSJkaXNwbGF5OiB0YWJsZS1jZWxsOyB3aGl0ZS1zcGFjZTogbm93cmFwOyBsaW5lLWhlaWdodDogMS41OyBtYXgtd2lkdGg6IDIwMHB4OyB0ZXh0LWFsaWduOiBjZW50ZXI7IiB4bWxucz0iaHR0cDovL3d3dy53My5vcmcvMTk5OS94aHRtbCI+PHNwYW4gY2xhc3M9Im5vZGVMYWJlbCI+PHA+V0FJVF9DSEFSR0U8L3A+PC9zcGFuPjwvZGl2PjwvZm9yZWlnbk9iamVjdD48L2c+PC9nPjxnIHRyYW5zZm9ybT0idHJhbnNsYXRlKDI2NS44MDQyOTQ1ODYxODE2NCwgMTU0NS45OTgyMTI4MTQzMzEpIiBpZD0ic3RhdGUtUkVTVU1FX1RBU0stMTYiIGNsYXNzPSJub2RlICBzdGF0ZWRpYWdyYW0tc3RhdGUiPjxyZWN0IGhlaWdodD0iNDAuMDEwNzE1NDg0NjE5MTQiIHdpZHRoPSIxMTQuMzA4OTQ0NzAyMTQ4NDQiIHk9Ii0yMC4wMDUzNTc3NDIzMDk1NyIgeD0iLTU3LjE1NDQ3MjM1MTA3NDIyIiByeT0iNSIgcng9IjUiIHN0eWxlPSIiIGNsYXNzPSJiYXNpYyBsYWJlbC1jb250YWluZXIiPjwvcmVjdD48ZyB0cmFuc2Zvcm09InRyYW5zbGF0ZSgtNDkuMTU0NDcyMzUxMDc0MjIsIC0xMi4wMDUzNTc3NDIzMDk1NykiIHN0eWxlPSIiIGNsYXNzPSJsYWJlbCI+PHJlY3Q+PC9yZWN0Pjxmb3JlaWduT2JqZWN0IGhlaWdodD0iMjQuMDEwNzE1NDg0NjE5MTQiIHdpZHRoPSI5OC4zMDg5NDQ3MDIxNDg0NCI+PGRpdiBzdHlsZT0iZGlzcGxheTogdGFibGUtY2VsbDsgd2hpdGUtc3BhY2U6IG5vd3JhcDsgbGluZS1oZWlnaHQ6IDEuNTsgbWF4LXdpZHRoOiAyMDBweDsgdGV4dC1hbGlnbjogY2VudGVyOyIgeG1sbnM9Imh0dHA6Ly93d3cudzMub3JnLzE5OTkveGh0bWwiPjxzcGFuIGNsYXNzPSJub2RlTGFiZWwiPjxwPlJFU1VNRV9UQVNLPC9wPjwvc3Bhbj48L2Rpdj48L2ZvcmVpZ25PYmplY3Q+PC9nPjwvZz48ZyB0cmFuc2Zvcm09InRyYW5zbGF0ZSgxMzU2LjUxMTE5MjMyMTc3NzMsIDExNTUuNjIzMjEyODE0MzMxKSIgaWQ9InN0YXRlLVVQREFURV9TVEFUVVMtMTgiIGNsYXNzPSJub2RlICBzdGF0ZWRpYWdyYW0tc3RhdGUiPjxyZWN0IGhlaWdodD0iNDAuMDEwNzE1NDg0NjE5MTQiIHdpZHRoPSIxMjkuODgyMTU2MzcyMDcwMyIgeT0iLTIwLjAwNTM1Nzc0MjMwOTU3IiB4PSItNjQuOTQxMDc4MTg2MDM1MTYiIHJ5PSI1IiByeD0iNSIgc3R5bGU9IiIgY2xhc3M9ImJhc2ljIGxhYmVsLWNvbnRhaW5lciI+PC9yZWN0PjxnIHRyYW5zZm9ybT0idHJhbnNsYXRlKC01Ni45NDEwNzgxODYwMzUxNTYsIC0xMi4wMDUzNTc3NDIzMDk1NykiIHN0eWxlPSIiIGNsYXNzPSJsYWJlbCI+PHJlY3Q+PC9yZWN0Pjxmb3JlaWduT2JqZWN0IGhlaWdodD0iMjQuMDEwNzE1NDg0NjE5MTQiIHdpZHRoPSIxMTMuODgyMTU2MzcyMDcwMzEiPjxkaXYgc3R5bGU9ImRpc3BsYXk6IHRhYmxlLWNlbGw7IHdoaXRlLXNwYWNlOiBub3dyYXA7IGxpbmUtaGVpZ2h0OiAxLjU7IG1heC13aWR0aDogMjAwcHg7IHRleHQtYWxpZ246IGNlbnRlcjsiIHhtbG5zPSJodHRwOi8vd3d3LnczLm9yZy8xOTk5L3hodG1sIj48c3BhbiBjbGFzcz0ibm9kZUxhYmVsIj48cD5VUERBVEVfU1RBVFVTPC9wPjwvc3Bhbj48L2Rpdj48L2ZvcmVpZ25PYmplY3Q+PC9nPjwvZz48ZyB0cmFuc2Zvcm09InRyYW5zbGF0ZSgxMzIxLjI2NTQxMTM3Njk1MzEsIDEyNjguMTQ4MjE0MzQwMjEpIiBpZD0ic3RhdGUtUE9TVF9UQVNLX0NIRUNLLTIwIiBjbGFzcz0ibm9kZSAgc3RhdGVkaWFncmFtLXN0YXRlIj48cmVjdCBoZWlnaHQ9IjQwLjAxMDcxNTQ4NDYxOTE0IiB3aWR0aD0iMTUwLjkwMzU3OTcxMTkxNDA2IiB5PSItMjAuMDA1MzU3NzQyMzA5NTciIHg9Ii03NS40NTE3ODk4NTU5NTcwMyIgcnk9IjUiIHJ4PSI1IiBzdHlsZT0iIiBjbGFzcz0iYmFzaWMgbGFiZWwtY29udGFpbmVyIj48L3JlY3Q+PGcgdHJhbnNmb3JtPSJ0cmFuc2xhdGUoLTY3LjQ1MTc4OTg1NTk1NzAzLCAtMTIuMDA1MzU3NzQyMzA5NTcpIiBzdHlsZT0iIiBjbGFzcz0ibGFiZWwiPjxyZWN0PjwvcmVjdD48Zm9yZWlnbk9iamVjdCBoZWlnaHQ9IjI0LjAxMDcxNTQ4NDYxOTE0IiB3aWR0aD0iMTM0LjkwMzU3OTcxMTkxNDA2Ij48ZGl2IHN0eWxlPSJkaXNwbGF5OiB0YWJsZS1jZWxsOyB3aGl0ZS1zcGFjZTogbm93cmFwOyBsaW5lLWhlaWdodDogMS41OyBtYXgtd2lkdGg6IDIwMHB4OyB0ZXh0LWFsaWduOiBjZW50ZXI7IiB4bWxucz0iaHR0cDovL3d3dy53My5vcmcvMTk5OS94aHRtbCI+PHNwYW4gY2xhc3M9Im5vZGVMYWJlbCI+PHA+UE9TVF9UQVNLX0NIRUNLPC9wPjwvc3Bhbj48L2Rpdj48L2ZvcmVpZ25PYmplY3Q+PC9nPjwvZz48ZyB0cmFuc2Zvcm09InRyYW5zbGF0ZSgxMzIxLjI2NTQxMTM3Njk1MzEsIDE0MTUuODczMjEyODE0MzMxKSIgaWQ9InN0YXRlLUNIQVJHSU5HX1BST01PLTIxIiBjbGFzcz0ibm9kZSAgc3RhdGVkaWFncmFtLXN0YXRlIj48cmVjdCBoZWlnaHQ9IjQwLjAxMDcxNTQ4NDYxOTE0IiB3aWR0aD0iMTUwLjU5ODIyMDgyNTE5NTMiIHk9Ii0yMC4wMDUzNTc3NDIzMDk1NyIgeD0iLTc1LjI5OTExMDQxMjU5NzY2IiByeT0iNSIgcng9IjUiIHN0eWxlPSIiIGNsYXNzPSJiYXNpYyBsYWJlbC1jb250YWluZXIiPjwvcmVjdD48ZyB0cmFuc2Zvcm09InRyYW5zbGF0ZSgtNjcuMjk5MTEwNDEyNTk3NjYsIC0xMi4wMDUzNTc3NDIzMDk1NykiIHN0eWxlPSIiIGNsYXNzPSJsYWJlbCI+PHJlY3Q+PC9yZWN0Pjxmb3JlaWduT2JqZWN0IGhlaWdodD0iMjQuMDEwNzE1NDg0NjE5MTQiIHdpZHRoPSIxMzQuNTk4MjIwODI1MTk1MyI+PGRpdiBzdHlsZT0iZGlzcGxheTogdGFibGUtY2VsbDsgd2hpdGUtc3BhY2U6IG5vd3JhcDsgbGluZS1oZWlnaHQ6IDEuNTsgbWF4LXdpZHRoOiAyMDBweDsgdGV4dC1hbGlnbjogY2VudGVyOyIgeG1sbnM9Imh0dHA6Ly93d3cudzMub3JnLzE5OTkveGh0bWwiPjxzcGFuIGNsYXNzPSJub2RlTGFiZWwiPjxwPkNIQVJHSU5HX1BST01PPC9wPjwvc3Bhbj48L2Rpdj48L2ZvcmVpZ25PYmplY3Q+PC9nPjwvZz48ZyB0cmFuc2Zvcm09InRyYW5zbGF0ZSgxMjc3LjM0Nzk3ODU5MTkxOSwgMTU0NS45OTgyMTI4MTQzMzEpIiBpZD0ic3RhdGUtV0FJVF9QUk9NT19DSEFSR0UtMjIiIGNsYXNzPSJub2RlICBzdGF0ZWRpYWdyYW0tc3RhdGUiPjxyZWN0IGhlaWdodD0iNDAuMDEwNzE1NDg0NjE5MTQiIHdpZHRoPSIxNzcuNDY5NjUwMjY4NTU0NyIgeT0iLTIwLjAwNTM1Nzc0MjMwOTU3IiB4PSItODguNzM0ODI1MTM0Mjc3MzQiIHJ5PSI1IiByeD0iNSIgc3R5bGU9IiIgY2xhc3M9ImJhc2ljIGxhYmVsLWNvbnRhaW5lciI+PC9yZWN0PjxnIHRyYW5zZm9ybT0idHJhbnNsYXRlKC04MC43MzQ4MjUxMzQyNzczNCwgLTEyLjAwNTM1Nzc0MjMwOTU3KSIgc3R5bGU9IiIgY2xhc3M9ImxhYmVsIj48cmVjdD48L3JlY3Q+PGZvcmVpZ25PYmplY3QgaGVpZ2h0PSIyNC4wMTA3MTU0ODQ2MTkxNCIgd2lkdGg9IjE2MS40Njk2NTAyNjg1NTQ3Ij48ZGl2IHN0eWxlPSJkaXNwbGF5OiB0YWJsZS1jZWxsOyB3aGl0ZS1zcGFjZTogbm93cmFwOyBsaW5lLWhlaWdodDogMS41OyBtYXgtd2lkdGg6IDIwMHB4OyB0ZXh0LWFsaWduOiBjZW50ZXI7IiB4bWxucz0iaHR0cDovL3d3dy53My5vcmcvMTk5OS94aHRtbCI+PHNwYW4gY2xhc3M9Im5vZGVMYWJlbCI+PHA+V0FJVF9QUk9NT19DSEFSR0U8L3A+PC9zcGFuPjwvZGl2PjwvZm9yZWlnbk9iamVjdD48L2c+PC9nPjxnIHRyYW5zZm9ybT0idHJhbnNsYXRlKDc1MS42MDEzMzc0MzI4NjEzLCAxMTU1LjYyMzIxMjgxNDMzMSkiIGlkPSJzdGF0ZS1QRVJGT1JNX1JFQ09WRVJZLTI1IiBjbGFzcz0ibm9kZSAgc3RhdGVkaWFncmFtLXN0YXRlIj48cmVjdCBoZWlnaHQ9IjQwLjAxMDcxNTQ4NDYxOTE0IiB3aWR0aD0iMTY0LjYxMjUwMzA1MTc1NzgiIHk9Ii0yMC4wMDUzNTc3NDIzMDk1NyIgeD0iLTgyLjMwNjI1MTUyNTg3ODkiIHJ5PSI1IiByeD0iNSIgc3R5bGU9IiIgY2xhc3M9ImJhc2ljIGxhYmVsLWNvbnRhaW5lciI+PC9yZWN0PjxnIHRyYW5zZm9ybT0idHJhbnNsYXRlKC03NC4zMDYyNTE1MjU4Nzg5LCAtMTIuMDA1MzU3NzQyMzA5NTcpIiBzdHlsZT0iIiBjbGFzcz0ibGFiZWwiPjxyZWN0PjwvcmVjdD48Zm9yZWlnbk9iamVjdCBoZWlnaHQ9IjI0LjAxMDcxNTQ4NDYxOTE0IiB3aWR0aD0iMTQ4LjYxMjUwMzA1MTc1NzgiPjxkaXYgc3R5bGU9ImRpc3BsYXk6IHRhYmxlLWNlbGw7IHdoaXRlLXNwYWNlOiBub3dyYXA7IGxpbmUtaGVpZ2h0OiAxLjU7IG1heC13aWR0aDogMjAwcHg7IHRleHQtYWxpZ246IGNlbnRlcjsiIHhtbG5zPSJodHRwOi8vd3d3LnczLm9yZy8xOTk5L3hodG1sIj48c3BhbiBjbGFzcz0ibm9kZUxhYmVsIj48cD5QRVJGT1JNX1JFQ09WRVJZPC9wPjwvc3Bhbj48L2Rpdj48L2ZvcmVpZ25PYmplY3Q+PC9nPjwvZz48L2c+PC9nPjwvZz48L3N2Zz4=;" vertex="1" parent="1">
                        <mxGeometry x="-1420" y="-1300" width="1452.76171875" height="1574.0035400390625" as="geometry"/>
                    </mxCell>
                </UserObject>
            </root>
        </mxGraphModel>
    </diagram>
</mxfile>